<?xml version="1.0" encoding="utf-8" standalone="no"?>
<!DOCTYPE svg PUBLIC "-//W3C//DTD SVG 1.1//EN"
  "http://www.w3.org/Graphics/SVG/1.1/DTD/svg11.dtd">
<svg xmlns:xlink="http://www.w3.org/1999/xlink" width="648pt" height="453.6pt" viewBox="0 0 648 453.6" xmlns="http://www.w3.org/2000/svg" version="1.1">
 <metadata>
  <rdf:RDF xmlns:dc="http://purl.org/dc/elements/1.1/" xmlns:cc="http://creativecommons.org/ns#" xmlns:rdf="http://www.w3.org/1999/02/22-rdf-syntax-ns#">
   <cc:Work>
    <dc:type rdf:resource="http://purl.org/dc/dcmitype/StillImage"/>
    <dc:format>image/svg+xml</dc:format>
    <dc:creator>
     <cc:Agent>
      <dc:title>Matplotlib v3.10.8, https://matplotlib.org/</dc:title>
     </cc:Agent>
    </dc:creator>
   </cc:Work>
  </rdf:RDF>
 </metadata>
 <defs>
  <style type="text/css">*{stroke-linejoin: round; stroke-linecap: butt}</style>
 </defs>
 <g id="figure_1">
  <g id="patch_1">
   <path d="M 0 453.6 
L 648 453.6 
L 648 0 
L 0 0 
z
" style="fill: #ffffff"/>
  </g>
  <g id="axes_1">
   <g id="patch_2">
    <path d="M 109.42 292.400667 
L 625.472893 292.400667 
L 625.472893 53.424 
L 109.42 53.424 
z
" style="fill: #ffffff"/>
   </g>
   <g id="matplotlib.axis_1">
    <g id="xtick_1">
     <g id="line2d_1">
      <path d="M 141.79793 292.400667 
L 141.79793 53.424 
" clip-path="url(#p6b440b52c6)" style="fill: none; stroke: #b0b0b0; stroke-opacity: 0.2; stroke-width: 0.8; stroke-linecap: square"/>
     </g>
     <g id="line2d_2">
      <defs>
       <path id="m244a46e21f" d="M 0 0 
L 0 3.5 
" style="stroke: #000000; stroke-width: 0.8"/>
      </defs>
      <g>
       <use xlink:href="#m244a46e21f" x="141.79793" y="292.400667" style="stroke: #000000; stroke-width: 0.8"/>
      </g>
     </g>
     <g id="text_1">
      <!-- −20 -->
      <g transform="translate(131.245587 306.999104) scale(0.1 -0.1)">
       <defs>
        <path id="DejaVuSans-2212" d="M 678 2272 
L 4684 2272 
L 4684 1741 
L 678 1741 
L 678 2272 
z
" transform="scale(0.015625)"/>
        <path id="DejaVuSans-32" d="M 1228 531 
L 3431 531 
L 3431 0 
L 469 0 
L 469 531 
Q 828 903 1448 1529 
Q 2069 2156 2228 2338 
Q 2531 2678 2651 2914 
Q 2772 3150 2772 3378 
Q 2772 3750 2511 3984 
Q 2250 4219 1831 4219 
Q 1534 4219 1204 4116 
Q 875 4013 500 3803 
L 500 4441 
Q 881 4594 1212 4672 
Q 1544 4750 1819 4750 
Q 2544 4750 2975 4387 
Q 3406 4025 3406 3419 
Q 3406 3131 3298 2873 
Q 3191 2616 2906 2266 
Q 2828 2175 2409 1742 
Q 1991 1309 1228 531 
z
" transform="scale(0.015625)"/>
        <path id="DejaVuSans-30" d="M 2034 4250 
Q 1547 4250 1301 3770 
Q 1056 3291 1056 2328 
Q 1056 1369 1301 889 
Q 1547 409 2034 409 
Q 2525 409 2770 889 
Q 3016 1369 3016 2328 
Q 3016 3291 2770 3770 
Q 2525 4250 2034 4250 
z
M 2034 4750 
Q 2819 4750 3233 4129 
Q 3647 3509 3647 2328 
Q 3647 1150 3233 529 
Q 2819 -91 2034 -91 
Q 1250 -91 836 529 
Q 422 1150 422 2328 
Q 422 3509 836 4129 
Q 1250 4750 2034 4750 
z
" transform="scale(0.015625)"/>
       </defs>
       <use xlink:href="#DejaVuSans-2212"/>
       <use xlink:href="#DejaVuSans-32" transform="translate(83.789062 0)"/>
       <use xlink:href="#DejaVuSans-30" transform="translate(147.412109 0)"/>
      </g>
     </g>
    </g>
    <g id="xtick_2">
     <g id="line2d_3">
      <path d="M 210.24324 292.400667 
L 210.24324 53.424 
" clip-path="url(#p6b440b52c6)" style="fill: none; stroke: #b0b0b0; stroke-opacity: 0.2; stroke-width: 0.8; stroke-linecap: square"/>
     </g>
     <g id="line2d_4">
      <g>
       <use xlink:href="#m244a46e21f" x="210.24324" y="292.400667" style="stroke: #000000; stroke-width: 0.8"/>
      </g>
     </g>
     <g id="text_2">
      <!-- −10 -->
      <g transform="translate(199.690896 306.999104) scale(0.1 -0.1)">
       <defs>
        <path id="DejaVuSans-31" d="M 794 531 
L 1825 531 
L 1825 4091 
L 703 3866 
L 703 4441 
L 1819 4666 
L 2450 4666 
L 2450 531 
L 3481 531 
L 3481 0 
L 794 0 
L 794 531 
z
" transform="scale(0.015625)"/>
       </defs>
       <use xlink:href="#DejaVuSans-2212"/>
       <use xlink:href="#DejaVuSans-31" transform="translate(83.789062 0)"/>
       <use xlink:href="#DejaVuSans-30" transform="translate(147.412109 0)"/>
      </g>
     </g>
    </g>
    <g id="xtick_3">
     <g id="line2d_5">
      <path d="M 278.688549 292.400667 
L 278.688549 53.424 
" clip-path="url(#p6b440b52c6)" style="fill: none; stroke: #b0b0b0; stroke-opacity: 0.2; stroke-width: 0.8; stroke-linecap: square"/>
     </g>
     <g id="line2d_6">
      <g>
       <use xlink:href="#m244a46e21f" x="278.688549" y="292.400667" style="stroke: #000000; stroke-width: 0.8"/>
      </g>
     </g>
     <g id="text_3">
      <!-- 0 -->
      <g transform="translate(275.507299 306.999104) scale(0.1 -0.1)">
       <use xlink:href="#DejaVuSans-30"/>
      </g>
     </g>
    </g>
    <g id="xtick_4">
     <g id="line2d_7">
      <path d="M 347.133858 292.400667 
L 347.133858 53.424 
" clip-path="url(#p6b440b52c6)" style="fill: none; stroke: #b0b0b0; stroke-opacity: 0.2; stroke-width: 0.8; stroke-linecap: square"/>
     </g>
     <g id="line2d_8">
      <g>
       <use xlink:href="#m244a46e21f" x="347.133858" y="292.400667" style="stroke: #000000; stroke-width: 0.8"/>
      </g>
     </g>
     <g id="text_4">
      <!-- 10 -->
      <g transform="translate(340.771358 306.999104) scale(0.1 -0.1)">
       <use xlink:href="#DejaVuSans-31"/>
       <use xlink:href="#DejaVuSans-30" transform="translate(63.623047 0)"/>
      </g>
     </g>
    </g>
    <g id="xtick_5">
     <g id="line2d_9">
      <path d="M 415.579168 292.400667 
L 415.579168 53.424 
" clip-path="url(#p6b440b52c6)" style="fill: none; stroke: #b0b0b0; stroke-opacity: 0.2; stroke-width: 0.8; stroke-linecap: square"/>
     </g>
     <g id="line2d_10">
      <g>
       <use xlink:href="#m244a46e21f" x="415.579168" y="292.400667" style="stroke: #000000; stroke-width: 0.8"/>
      </g>
     </g>
     <g id="text_5">
      <!-- 20 -->
      <g transform="translate(409.216668 306.999104) scale(0.1 -0.1)">
       <use xlink:href="#DejaVuSans-32"/>
       <use xlink:href="#DejaVuSans-30" transform="translate(63.623047 0)"/>
      </g>
     </g>
    </g>
    <g id="xtick_6">
     <g id="line2d_11">
      <path d="M 484.024477 292.400667 
L 484.024477 53.424 
" clip-path="url(#p6b440b52c6)" style="fill: none; stroke: #b0b0b0; stroke-opacity: 0.2; stroke-width: 0.8; stroke-linecap: square"/>
     </g>
     <g id="line2d_12">
      <g>
       <use xlink:href="#m244a46e21f" x="484.024477" y="292.400667" style="stroke: #000000; stroke-width: 0.8"/>
      </g>
     </g>
     <g id="text_6">
      <!-- 30 -->
      <g transform="translate(477.661977 306.999104) scale(0.1 -0.1)">
       <defs>
        <path id="DejaVuSans-33" d="M 2597 2516 
Q 3050 2419 3304 2112 
Q 3559 1806 3559 1356 
Q 3559 666 3084 287 
Q 2609 -91 1734 -91 
Q 1441 -91 1130 -33 
Q 819 25 488 141 
L 488 750 
Q 750 597 1062 519 
Q 1375 441 1716 441 
Q 2309 441 2620 675 
Q 2931 909 2931 1356 
Q 2931 1769 2642 2001 
Q 2353 2234 1838 2234 
L 1294 2234 
L 1294 2753 
L 1863 2753 
Q 2328 2753 2575 2939 
Q 2822 3125 2822 3475 
Q 2822 3834 2567 4026 
Q 2313 4219 1838 4219 
Q 1578 4219 1281 4162 
Q 984 4106 628 3988 
L 628 4550 
Q 988 4650 1302 4700 
Q 1616 4750 1894 4750 
Q 2613 4750 3031 4423 
Q 3450 4097 3450 3541 
Q 3450 3153 3228 2886 
Q 3006 2619 2597 2516 
z
" transform="scale(0.015625)"/>
       </defs>
       <use xlink:href="#DejaVuSans-33"/>
       <use xlink:href="#DejaVuSans-30" transform="translate(63.623047 0)"/>
      </g>
     </g>
    </g>
    <g id="xtick_7">
     <g id="line2d_13">
      <path d="M 552.469787 292.400667 
L 552.469787 53.424 
" clip-path="url(#p6b440b52c6)" style="fill: none; stroke: #b0b0b0; stroke-opacity: 0.2; stroke-width: 0.8; stroke-linecap: square"/>
     </g>
     <g id="line2d_14">
      <g>
       <use xlink:href="#m244a46e21f" x="552.469787" y="292.400667" style="stroke: #000000; stroke-width: 0.8"/>
      </g>
     </g>
     <g id="text_7">
      <!-- 40 -->
      <g transform="translate(546.107287 306.999104) scale(0.1 -0.1)">
       <defs>
        <path id="DejaVuSans-34" d="M 2419 4116 
L 825 1625 
L 2419 1625 
L 2419 4116 
z
M 2253 4666 
L 3047 4666 
L 3047 1625 
L 3713 1625 
L 3713 1100 
L 3047 1100 
L 3047 0 
L 2419 0 
L 2419 1100 
L 313 1100 
L 313 1709 
L 2253 4666 
z
" transform="scale(0.015625)"/>
       </defs>
       <use xlink:href="#DejaVuSans-34"/>
       <use xlink:href="#DejaVuSans-30" transform="translate(63.623047 0)"/>
      </g>
     </g>
    </g>
    <g id="xtick_8">
     <g id="line2d_15">
      <path d="M 620.915096 292.400667 
L 620.915096 53.424 
" clip-path="url(#p6b440b52c6)" style="fill: none; stroke: #b0b0b0; stroke-opacity: 0.2; stroke-width: 0.8; stroke-linecap: square"/>
     </g>
     <g id="line2d_16">
      <g>
       <use xlink:href="#m244a46e21f" x="620.915096" y="292.400667" style="stroke: #000000; stroke-width: 0.8"/>
      </g>
     </g>
     <g id="text_8">
      <!-- 50 -->
      <g transform="translate(614.552596 306.999104) scale(0.1 -0.1)">
       <defs>
        <path id="DejaVuSans-35" d="M 691 4666 
L 3169 4666 
L 3169 4134 
L 1269 4134 
L 1269 2991 
Q 1406 3038 1543 3061 
Q 1681 3084 1819 3084 
Q 2600 3084 3056 2656 
Q 3513 2228 3513 1497 
Q 3513 744 3044 326 
Q 2575 -91 1722 -91 
Q 1428 -91 1123 -41 
Q 819 9 494 109 
L 494 744 
Q 775 591 1075 516 
Q 1375 441 1709 441 
Q 2250 441 2565 725 
Q 2881 1009 2881 1497 
Q 2881 1984 2565 2268 
Q 2250 2553 1709 2553 
Q 1456 2553 1204 2497 
Q 953 2441 691 2322 
L 691 4666 
z
" transform="scale(0.015625)"/>
       </defs>
       <use xlink:href="#DejaVuSans-35"/>
       <use xlink:href="#DejaVuSans-30" transform="translate(63.623047 0)"/>
      </g>
     </g>
    </g>
    <g id="text_9">
     <!-- Elapsed-time change (%) — positive means slower -->
     <g transform="translate(240.444884 320.677229) scale(0.1 -0.1)">
      <defs>
       <path id="DejaVuSans-45" d="M 628 4666 
L 3578 4666 
L 3578 4134 
L 1259 4134 
L 1259 2753 
L 3481 2753 
L 3481 2222 
L 1259 2222 
L 1259 531 
L 3634 531 
L 3634 0 
L 628 0 
L 628 4666 
z
" transform="scale(0.015625)"/>
       <path id="DejaVuSans-6c" d="M 603 4863 
L 1178 4863 
L 1178 0 
L 603 0 
L 603 4863 
z
" transform="scale(0.015625)"/>
       <path id="DejaVuSans-61" d="M 2194 1759 
Q 1497 1759 1228 1600 
Q 959 1441 959 1056 
Q 959 750 1161 570 
Q 1363 391 1709 391 
Q 2188 391 2477 730 
Q 2766 1069 2766 1631 
L 2766 1759 
L 2194 1759 
z
M 3341 1997 
L 3341 0 
L 2766 0 
L 2766 531 
Q 2569 213 2275 61 
Q 1981 -91 1556 -91 
Q 1019 -91 701 211 
Q 384 513 384 1019 
Q 384 1609 779 1909 
Q 1175 2209 1959 2209 
L 2766 2209 
L 2766 2266 
Q 2766 2663 2505 2880 
Q 2244 3097 1772 3097 
Q 1472 3097 1187 3025 
Q 903 2953 641 2809 
L 641 3341 
Q 956 3463 1253 3523 
Q 1550 3584 1831 3584 
Q 2591 3584 2966 3190 
Q 3341 2797 3341 1997 
z
" transform="scale(0.015625)"/>
       <path id="DejaVuSans-70" d="M 1159 525 
L 1159 -1331 
L 581 -1331 
L 581 3500 
L 1159 3500 
L 1159 2969 
Q 1341 3281 1617 3432 
Q 1894 3584 2278 3584 
Q 2916 3584 3314 3078 
Q 3713 2572 3713 1747 
Q 3713 922 3314 415 
Q 2916 -91 2278 -91 
Q 1894 -91 1617 61 
Q 1341 213 1159 525 
z
M 3116 1747 
Q 3116 2381 2855 2742 
Q 2594 3103 2138 3103 
Q 1681 3103 1420 2742 
Q 1159 2381 1159 1747 
Q 1159 1113 1420 752 
Q 1681 391 2138 391 
Q 2594 391 2855 752 
Q 3116 1113 3116 1747 
z
" transform="scale(0.015625)"/>
       <path id="DejaVuSans-73" d="M 2834 3397 
L 2834 2853 
Q 2591 2978 2328 3040 
Q 2066 3103 1784 3103 
Q 1356 3103 1142 2972 
Q 928 2841 928 2578 
Q 928 2378 1081 2264 
Q 1234 2150 1697 2047 
L 1894 2003 
Q 2506 1872 2764 1633 
Q 3022 1394 3022 966 
Q 3022 478 2636 193 
Q 2250 -91 1575 -91 
Q 1294 -91 989 -36 
Q 684 19 347 128 
L 347 722 
Q 666 556 975 473 
Q 1284 391 1588 391 
Q 1994 391 2212 530 
Q 2431 669 2431 922 
Q 2431 1156 2273 1281 
Q 2116 1406 1581 1522 
L 1381 1569 
Q 847 1681 609 1914 
Q 372 2147 372 2553 
Q 372 3047 722 3315 
Q 1072 3584 1716 3584 
Q 2034 3584 2315 3537 
Q 2597 3491 2834 3397 
z
" transform="scale(0.015625)"/>
       <path id="DejaVuSans-65" d="M 3597 1894 
L 3597 1613 
L 953 1613 
Q 991 1019 1311 708 
Q 1631 397 2203 397 
Q 2534 397 2845 478 
Q 3156 559 3463 722 
L 3463 178 
Q 3153 47 2828 -22 
Q 2503 -91 2169 -91 
Q 1331 -91 842 396 
Q 353 884 353 1716 
Q 353 2575 817 3079 
Q 1281 3584 2069 3584 
Q 2775 3584 3186 3129 
Q 3597 2675 3597 1894 
z
M 3022 2063 
Q 3016 2534 2758 2815 
Q 2500 3097 2075 3097 
Q 1594 3097 1305 2825 
Q 1016 2553 972 2059 
L 3022 2063 
z
" transform="scale(0.015625)"/>
       <path id="DejaVuSans-64" d="M 2906 2969 
L 2906 4863 
L 3481 4863 
L 3481 0 
L 2906 0 
L 2906 525 
Q 2725 213 2448 61 
Q 2172 -91 1784 -91 
Q 1150 -91 751 415 
Q 353 922 353 1747 
Q 353 2572 751 3078 
Q 1150 3584 1784 3584 
Q 2172 3584 2448 3432 
Q 2725 3281 2906 2969 
z
M 947 1747 
Q 947 1113 1208 752 
Q 1469 391 1925 391 
Q 2381 391 2643 752 
Q 2906 1113 2906 1747 
Q 2906 2381 2643 2742 
Q 2381 3103 1925 3103 
Q 1469 3103 1208 2742 
Q 947 2381 947 1747 
z
" transform="scale(0.015625)"/>
       <path id="DejaVuSans-2d" d="M 313 2009 
L 1997 2009 
L 1997 1497 
L 313 1497 
L 313 2009 
z
" transform="scale(0.015625)"/>
       <path id="DejaVuSans-74" d="M 1172 4494 
L 1172 3500 
L 2356 3500 
L 2356 3053 
L 1172 3053 
L 1172 1153 
Q 1172 725 1289 603 
Q 1406 481 1766 481 
L 2356 481 
L 2356 0 
L 1766 0 
Q 1100 0 847 248 
Q 594 497 594 1153 
L 594 3053 
L 172 3053 
L 172 3500 
L 594 3500 
L 594 4494 
L 1172 4494 
z
" transform="scale(0.015625)"/>
       <path id="DejaVuSans-69" d="M 603 3500 
L 1178 3500 
L 1178 0 
L 603 0 
L 603 3500 
z
M 603 4863 
L 1178 4863 
L 1178 4134 
L 603 4134 
L 603 4863 
z
" transform="scale(0.015625)"/>
       <path id="DejaVuSans-6d" d="M 3328 2828 
Q 3544 3216 3844 3400 
Q 4144 3584 4550 3584 
Q 5097 3584 5394 3201 
Q 5691 2819 5691 2113 
L 5691 0 
L 5113 0 
L 5113 2094 
Q 5113 2597 4934 2840 
Q 4756 3084 4391 3084 
Q 3944 3084 3684 2787 
Q 3425 2491 3425 1978 
L 3425 0 
L 2847 0 
L 2847 2094 
Q 2847 2600 2669 2842 
Q 2491 3084 2119 3084 
Q 1678 3084 1418 2786 
Q 1159 2488 1159 1978 
L 1159 0 
L 581 0 
L 581 3500 
L 1159 3500 
L 1159 2956 
Q 1356 3278 1631 3431 
Q 1906 3584 2284 3584 
Q 2666 3584 2933 3390 
Q 3200 3197 3328 2828 
z
" transform="scale(0.015625)"/>
       <path id="DejaVuSans-20" transform="scale(0.015625)"/>
       <path id="DejaVuSans-63" d="M 3122 3366 
L 3122 2828 
Q 2878 2963 2633 3030 
Q 2388 3097 2138 3097 
Q 1578 3097 1268 2742 
Q 959 2388 959 1747 
Q 959 1106 1268 751 
Q 1578 397 2138 397 
Q 2388 397 2633 464 
Q 2878 531 3122 666 
L 3122 134 
Q 2881 22 2623 -34 
Q 2366 -91 2075 -91 
Q 1284 -91 818 406 
Q 353 903 353 1747 
Q 353 2603 823 3093 
Q 1294 3584 2113 3584 
Q 2378 3584 2631 3529 
Q 2884 3475 3122 3366 
z
" transform="scale(0.015625)"/>
       <path id="DejaVuSans-68" d="M 3513 2113 
L 3513 0 
L 2938 0 
L 2938 2094 
Q 2938 2591 2744 2837 
Q 2550 3084 2163 3084 
Q 1697 3084 1428 2787 
Q 1159 2491 1159 1978 
L 1159 0 
L 581 0 
L 581 4863 
L 1159 4863 
L 1159 2956 
Q 1366 3272 1645 3428 
Q 1925 3584 2291 3584 
Q 2894 3584 3203 3211 
Q 3513 2838 3513 2113 
z
" transform="scale(0.015625)"/>
       <path id="DejaVuSans-6e" d="M 3513 2113 
L 3513 0 
L 2938 0 
L 2938 2094 
Q 2938 2591 2744 2837 
Q 2550 3084 2163 3084 
Q 1697 3084 1428 2787 
Q 1159 2491 1159 1978 
L 1159 0 
L 581 0 
L 581 3500 
L 1159 3500 
L 1159 2956 
Q 1366 3272 1645 3428 
Q 1925 3584 2291 3584 
Q 2894 3584 3203 3211 
Q 3513 2838 3513 2113 
z
" transform="scale(0.015625)"/>
       <path id="DejaVuSans-67" d="M 2906 1791 
Q 2906 2416 2648 2759 
Q 2391 3103 1925 3103 
Q 1463 3103 1205 2759 
Q 947 2416 947 1791 
Q 947 1169 1205 825 
Q 1463 481 1925 481 
Q 2391 481 2648 825 
Q 2906 1169 2906 1791 
z
M 3481 434 
Q 3481 -459 3084 -895 
Q 2688 -1331 1869 -1331 
Q 1566 -1331 1297 -1286 
Q 1028 -1241 775 -1147 
L 775 -588 
Q 1028 -725 1275 -790 
Q 1522 -856 1778 -856 
Q 2344 -856 2625 -561 
Q 2906 -266 2906 331 
L 2906 616 
Q 2728 306 2450 153 
Q 2172 0 1784 0 
Q 1141 0 747 490 
Q 353 981 353 1791 
Q 353 2603 747 3093 
Q 1141 3584 1784 3584 
Q 2172 3584 2450 3431 
Q 2728 3278 2906 2969 
L 2906 3500 
L 3481 3500 
L 3481 434 
z
" transform="scale(0.015625)"/>
       <path id="DejaVuSans-28" d="M 1984 4856 
Q 1566 4138 1362 3434 
Q 1159 2731 1159 2009 
Q 1159 1288 1364 580 
Q 1569 -128 1984 -844 
L 1484 -844 
Q 1016 -109 783 600 
Q 550 1309 550 2009 
Q 550 2706 781 3412 
Q 1013 4119 1484 4856 
L 1984 4856 
z
" transform="scale(0.015625)"/>
       <path id="DejaVuSans-25" d="M 4653 2053 
Q 4381 2053 4226 1822 
Q 4072 1591 4072 1178 
Q 4072 772 4226 539 
Q 4381 306 4653 306 
Q 4919 306 5073 539 
Q 5228 772 5228 1178 
Q 5228 1588 5073 1820 
Q 4919 2053 4653 2053 
z
M 4653 2450 
Q 5147 2450 5437 2106 
Q 5728 1763 5728 1178 
Q 5728 594 5436 251 
Q 5144 -91 4653 -91 
Q 4153 -91 3862 251 
Q 3572 594 3572 1178 
Q 3572 1766 3864 2108 
Q 4156 2450 4653 2450 
z
M 1428 4353 
Q 1159 4353 1004 4120 
Q 850 3888 850 3481 
Q 850 3069 1003 2837 
Q 1156 2606 1428 2606 
Q 1700 2606 1854 2837 
Q 2009 3069 2009 3481 
Q 2009 3884 1853 4118 
Q 1697 4353 1428 4353 
z
M 4250 4750 
L 4750 4750 
L 1831 -91 
L 1331 -91 
L 4250 4750 
z
M 1428 4750 
Q 1922 4750 2215 4408 
Q 2509 4066 2509 3481 
Q 2509 2891 2217 2550 
Q 1925 2209 1428 2209 
Q 931 2209 642 2551 
Q 353 2894 353 3481 
Q 353 4063 643 4406 
Q 934 4750 1428 4750 
z
" transform="scale(0.015625)"/>
       <path id="DejaVuSans-29" d="M 513 4856 
L 1013 4856 
Q 1481 4119 1714 3412 
Q 1947 2706 1947 2009 
Q 1947 1309 1714 600 
Q 1481 -109 1013 -844 
L 513 -844 
Q 928 -128 1133 580 
Q 1338 1288 1338 2009 
Q 1338 2731 1133 3434 
Q 928 4138 513 4856 
z
" transform="scale(0.015625)"/>
       <path id="DejaVuSans-2014" d="M 313 1978 
L 6088 1978 
L 6088 1528 
L 313 1528 
L 313 1978 
z
" transform="scale(0.015625)"/>
       <path id="DejaVuSans-6f" d="M 1959 3097 
Q 1497 3097 1228 2736 
Q 959 2375 959 1747 
Q 959 1119 1226 758 
Q 1494 397 1959 397 
Q 2419 397 2687 759 
Q 2956 1122 2956 1747 
Q 2956 2369 2687 2733 
Q 2419 3097 1959 3097 
z
M 1959 3584 
Q 2709 3584 3137 3096 
Q 3566 2609 3566 1747 
Q 3566 888 3137 398 
Q 2709 -91 1959 -91 
Q 1206 -91 779 398 
Q 353 888 353 1747 
Q 353 2609 779 3096 
Q 1206 3584 1959 3584 
z
" transform="scale(0.015625)"/>
       <path id="DejaVuSans-76" d="M 191 3500 
L 800 3500 
L 1894 563 
L 2988 3500 
L 3597 3500 
L 2284 0 
L 1503 0 
L 191 3500 
z
" transform="scale(0.015625)"/>
       <path id="DejaVuSans-77" d="M 269 3500 
L 844 3500 
L 1563 769 
L 2278 3500 
L 2956 3500 
L 3675 769 
L 4391 3500 
L 4966 3500 
L 4050 0 
L 3372 0 
L 2619 2869 
L 1863 0 
L 1184 0 
L 269 3500 
z
" transform="scale(0.015625)"/>
       <path id="DejaVuSans-72" d="M 2631 2963 
Q 2534 3019 2420 3045 
Q 2306 3072 2169 3072 
Q 1681 3072 1420 2755 
Q 1159 2438 1159 1844 
L 1159 0 
L 581 0 
L 581 3500 
L 1159 3500 
L 1159 2956 
Q 1341 3275 1631 3429 
Q 1922 3584 2338 3584 
Q 2397 3584 2469 3576 
Q 2541 3569 2628 3553 
L 2631 2963 
z
" transform="scale(0.015625)"/>
      </defs>
      <use xlink:href="#DejaVuSans-45"/>
      <use xlink:href="#DejaVuSans-6c" transform="translate(63.183594 0)"/>
      <use xlink:href="#DejaVuSans-61" transform="translate(90.966797 0)"/>
      <use xlink:href="#DejaVuSans-70" transform="translate(152.246094 0)"/>
      <use xlink:href="#DejaVuSans-73" transform="translate(215.722656 0)"/>
      <use xlink:href="#DejaVuSans-65" transform="translate(267.822266 0)"/>
      <use xlink:href="#DejaVuSans-64" transform="translate(329.345703 0)"/>
      <use xlink:href="#DejaVuSans-2d" transform="translate(392.822266 0)"/>
      <use xlink:href="#DejaVuSans-74" transform="translate(428.90625 0)"/>
      <use xlink:href="#DejaVuSans-69" transform="translate(468.115234 0)"/>
      <use xlink:href="#DejaVuSans-6d" transform="translate(495.898438 0)"/>
      <use xlink:href="#DejaVuSans-65" transform="translate(593.310547 0)"/>
      <use xlink:href="#DejaVuSans-20" transform="translate(654.833984 0)"/>
      <use xlink:href="#DejaVuSans-63" transform="translate(686.621094 0)"/>
      <use xlink:href="#DejaVuSans-68" transform="translate(741.601562 0)"/>
      <use xlink:href="#DejaVuSans-61" transform="translate(804.980469 0)"/>
      <use xlink:href="#DejaVuSans-6e" transform="translate(866.259766 0)"/>
      <use xlink:href="#DejaVuSans-67" transform="translate(929.638672 0)"/>
      <use xlink:href="#DejaVuSans-65" transform="translate(993.115234 0)"/>
      <use xlink:href="#DejaVuSans-20" transform="translate(1054.638672 0)"/>
      <use xlink:href="#DejaVuSans-28" transform="translate(1086.425781 0)"/>
      <use xlink:href="#DejaVuSans-25" transform="translate(1125.439453 0)"/>
      <use xlink:href="#DejaVuSans-29" transform="translate(1220.458984 0)"/>
      <use xlink:href="#DejaVuSans-20" transform="translate(1259.472656 0)"/>
      <use xlink:href="#DejaVuSans-2014" transform="translate(1291.259766 0)"/>
      <use xlink:href="#DejaVuSans-20" transform="translate(1391.259766 0)"/>
      <use xlink:href="#DejaVuSans-70" transform="translate(1423.046875 0)"/>
      <use xlink:href="#DejaVuSans-6f" transform="translate(1486.523438 0)"/>
      <use xlink:href="#DejaVuSans-73" transform="translate(1547.705078 0)"/>
      <use xlink:href="#DejaVuSans-69" transform="translate(1599.804688 0)"/>
      <use xlink:href="#DejaVuSans-74" transform="translate(1627.587891 0)"/>
      <use xlink:href="#DejaVuSans-69" transform="translate(1666.796875 0)"/>
      <use xlink:href="#DejaVuSans-76" transform="translate(1694.580078 0)"/>
      <use xlink:href="#DejaVuSans-65" transform="translate(1753.759766 0)"/>
      <use xlink:href="#DejaVuSans-20" transform="translate(1815.283203 0)"/>
      <use xlink:href="#DejaVuSans-6d" transform="translate(1847.070312 0)"/>
      <use xlink:href="#DejaVuSans-65" transform="translate(1944.482422 0)"/>
      <use xlink:href="#DejaVuSans-61" transform="translate(2006.005859 0)"/>
      <use xlink:href="#DejaVuSans-6e" transform="translate(2067.285156 0)"/>
      <use xlink:href="#DejaVuSans-73" transform="translate(2130.664062 0)"/>
      <use xlink:href="#DejaVuSans-20" transform="translate(2182.763672 0)"/>
      <use xlink:href="#DejaVuSans-73" transform="translate(2214.550781 0)"/>
      <use xlink:href="#DejaVuSans-6c" transform="translate(2266.650391 0)"/>
      <use xlink:href="#DejaVuSans-6f" transform="translate(2294.433594 0)"/>
      <use xlink:href="#DejaVuSans-77" transform="translate(2355.615234 0)"/>
      <use xlink:href="#DejaVuSans-65" transform="translate(2437.402344 0)"/>
      <use xlink:href="#DejaVuSans-72" transform="translate(2498.925781 0)"/>
     </g>
    </g>
   </g>
   <g id="matplotlib.axis_2">
    <g id="ytick_1">
     <g id="line2d_17">
      <defs>
       <path id="ma96df56e18" d="M 0 0 
L -3.5 0 
" style="stroke: #000000; stroke-width: 0.8"/>
      </defs>
      <g>
       <use xlink:href="#ma96df56e18" x="109.42" y="275.805065" style="stroke: #000000; stroke-width: 0.8"/>
      </g>
     </g>
     <g id="text_10">
      <!-- VHDX read -->
      <g transform="translate(47.815312 279.604284) scale(0.1 -0.1)">
       <defs>
        <path id="DejaVuSans-56" d="M 1831 0 
L 50 4666 
L 709 4666 
L 2188 738 
L 3669 4666 
L 4325 4666 
L 2547 0 
L 1831 0 
z
" transform="scale(0.015625)"/>
        <path id="DejaVuSans-48" d="M 628 4666 
L 1259 4666 
L 1259 2753 
L 3553 2753 
L 3553 4666 
L 4184 4666 
L 4184 0 
L 3553 0 
L 3553 2222 
L 1259 2222 
L 1259 0 
L 628 0 
L 628 4666 
z
" transform="scale(0.015625)"/>
        <path id="DejaVuSans-44" d="M 1259 4147 
L 1259 519 
L 2022 519 
Q 2988 519 3436 956 
Q 3884 1394 3884 2338 
Q 3884 3275 3436 3711 
Q 2988 4147 2022 4147 
L 1259 4147 
z
M 628 4666 
L 1925 4666 
Q 3281 4666 3915 4102 
Q 4550 3538 4550 2338 
Q 4550 1131 3912 565 
Q 3275 0 1925 0 
L 628 0 
L 628 4666 
z
" transform="scale(0.015625)"/>
        <path id="DejaVuSans-58" d="M 403 4666 
L 1081 4666 
L 2241 2931 
L 3406 4666 
L 4084 4666 
L 2584 2425 
L 4184 0 
L 3506 0 
L 2194 1984 
L 872 0 
L 191 0 
L 1856 2491 
L 403 4666 
z
" transform="scale(0.015625)"/>
       </defs>
       <use xlink:href="#DejaVuSans-56"/>
       <use xlink:href="#DejaVuSans-48" transform="translate(68.408203 0)"/>
       <use xlink:href="#DejaVuSans-44" transform="translate(143.603516 0)"/>
       <use xlink:href="#DejaVuSans-58" transform="translate(220.605469 0)"/>
       <use xlink:href="#DejaVuSans-20" transform="translate(289.111328 0)"/>
       <use xlink:href="#DejaVuSans-72" transform="translate(320.898438 0)"/>
       <use xlink:href="#DejaVuSans-65" transform="translate(359.761719 0)"/>
       <use xlink:href="#DejaVuSans-61" transform="translate(421.285156 0)"/>
       <use xlink:href="#DejaVuSans-64" transform="translate(482.564453 0)"/>
      </g>
     </g>
    </g>
    <g id="ytick_2">
     <g id="line2d_18">
      <g>
       <use xlink:href="#ma96df56e18" x="109.42" y="242.613861" style="stroke: #000000; stroke-width: 0.8"/>
      </g>
     </g>
     <g id="text_11">
      <!-- VHDX write -->
      <g transform="translate(45.190312 246.41308) scale(0.1 -0.1)">
       <use xlink:href="#DejaVuSans-56"/>
       <use xlink:href="#DejaVuSans-48" transform="translate(68.408203 0)"/>
       <use xlink:href="#DejaVuSans-44" transform="translate(143.603516 0)"/>
       <use xlink:href="#DejaVuSans-58" transform="translate(220.605469 0)"/>
       <use xlink:href="#DejaVuSans-20" transform="translate(289.111328 0)"/>
       <use xlink:href="#DejaVuSans-77" transform="translate(320.898438 0)"/>
       <use xlink:href="#DejaVuSans-72" transform="translate(402.685547 0)"/>
       <use xlink:href="#DejaVuSans-69" transform="translate(443.798828 0)"/>
       <use xlink:href="#DejaVuSans-74" transform="translate(471.582031 0)"/>
       <use xlink:href="#DejaVuSans-65" transform="translate(510.791016 0)"/>
      </g>
     </g>
    </g>
    <g id="ytick_3">
     <g id="line2d_19">
      <g>
       <use xlink:href="#ma96df56e18" x="109.42" y="209.422657" style="stroke: #000000; stroke-width: 0.8"/>
      </g>
     </g>
     <g id="text_12">
      <!-- Integer loop -->
      <g transform="translate(41.904375 213.221876) scale(0.1 -0.1)">
       <defs>
        <path id="DejaVuSans-49" d="M 628 4666 
L 1259 4666 
L 1259 0 
L 628 0 
L 628 4666 
z
" transform="scale(0.015625)"/>
       </defs>
       <use xlink:href="#DejaVuSans-49"/>
       <use xlink:href="#DejaVuSans-6e" transform="translate(29.492188 0)"/>
       <use xlink:href="#DejaVuSans-74" transform="translate(92.871094 0)"/>
       <use xlink:href="#DejaVuSans-65" transform="translate(132.080078 0)"/>
       <use xlink:href="#DejaVuSans-67" transform="translate(193.603516 0)"/>
       <use xlink:href="#DejaVuSans-65" transform="translate(257.080078 0)"/>
       <use xlink:href="#DejaVuSans-72" transform="translate(318.603516 0)"/>
       <use xlink:href="#DejaVuSans-20" transform="translate(359.716797 0)"/>
       <use xlink:href="#DejaVuSans-6c" transform="translate(391.503906 0)"/>
       <use xlink:href="#DejaVuSans-6f" transform="translate(419.287109 0)"/>
       <use xlink:href="#DejaVuSans-6f" transform="translate(480.46875 0)"/>
       <use xlink:href="#DejaVuSans-70" transform="translate(541.650391 0)"/>
      </g>
     </g>
    </g>
    <g id="ytick_4">
     <g id="line2d_20">
      <g>
       <use xlink:href="#ma96df56e18" x="109.42" y="176.231454" style="stroke: #000000; stroke-width: 0.8"/>
      </g>
     </g>
     <g id="text_13">
      <!-- Memory copy -->
      <g transform="translate(34.687187 180.030672) scale(0.1 -0.1)">
       <defs>
        <path id="DejaVuSans-4d" d="M 628 4666 
L 1569 4666 
L 2759 1491 
L 3956 4666 
L 4897 4666 
L 4897 0 
L 4281 0 
L 4281 4097 
L 3078 897 
L 2444 897 
L 1241 4097 
L 1241 0 
L 628 0 
L 628 4666 
z
" transform="scale(0.015625)"/>
        <path id="DejaVuSans-79" d="M 2059 -325 
Q 1816 -950 1584 -1140 
Q 1353 -1331 966 -1331 
L 506 -1331 
L 506 -850 
L 844 -850 
Q 1081 -850 1212 -737 
Q 1344 -625 1503 -206 
L 1606 56 
L 191 3500 
L 800 3500 
L 1894 763 
L 2988 3500 
L 3597 3500 
L 2059 -325 
z
" transform="scale(0.015625)"/>
       </defs>
       <use xlink:href="#DejaVuSans-4d"/>
       <use xlink:href="#DejaVuSans-65" transform="translate(86.279297 0)"/>
       <use xlink:href="#DejaVuSans-6d" transform="translate(147.802734 0)"/>
       <use xlink:href="#DejaVuSans-6f" transform="translate(245.214844 0)"/>
       <use xlink:href="#DejaVuSans-72" transform="translate(306.396484 0)"/>
       <use xlink:href="#DejaVuSans-79" transform="translate(347.509766 0)"/>
       <use xlink:href="#DejaVuSans-20" transform="translate(406.689453 0)"/>
       <use xlink:href="#DejaVuSans-63" transform="translate(438.476562 0)"/>
       <use xlink:href="#DejaVuSans-6f" transform="translate(493.457031 0)"/>
       <use xlink:href="#DejaVuSans-70" transform="translate(554.638672 0)"/>
       <use xlink:href="#DejaVuSans-79" transform="translate(618.115234 0)"/>
      </g>
     </g>
    </g>
    <g id="ytick_5">
     <g id="line2d_21">
      <g>
       <use xlink:href="#ma96df56e18" x="109.42" y="143.04025" style="stroke: #000000; stroke-width: 0.8"/>
      </g>
     </g>
     <g id="text_14">
      <!-- Pointer chase -->
      <g transform="translate(34.829375 146.839469) scale(0.1 -0.1)">
       <defs>
        <path id="DejaVuSans-50" d="M 1259 4147 
L 1259 2394 
L 2053 2394 
Q 2494 2394 2734 2622 
Q 2975 2850 2975 3272 
Q 2975 3691 2734 3919 
Q 2494 4147 2053 4147 
L 1259 4147 
z
M 628 4666 
L 2053 4666 
Q 2838 4666 3239 4311 
Q 3641 3956 3641 3272 
Q 3641 2581 3239 2228 
Q 2838 1875 2053 1875 
L 1259 1875 
L 1259 0 
L 628 0 
L 628 4666 
z
" transform="scale(0.015625)"/>
       </defs>
       <use xlink:href="#DejaVuSans-50"/>
       <use xlink:href="#DejaVuSans-6f" transform="translate(56.677734 0)"/>
       <use xlink:href="#DejaVuSans-69" transform="translate(117.859375 0)"/>
       <use xlink:href="#DejaVuSans-6e" transform="translate(145.642578 0)"/>
       <use xlink:href="#DejaVuSans-74" transform="translate(209.021484 0)"/>
       <use xlink:href="#DejaVuSans-65" transform="translate(248.230469 0)"/>
       <use xlink:href="#DejaVuSans-72" transform="translate(309.753906 0)"/>
       <use xlink:href="#DejaVuSans-20" transform="translate(350.867188 0)"/>
       <use xlink:href="#DejaVuSans-63" transform="translate(382.654297 0)"/>
       <use xlink:href="#DejaVuSans-68" transform="translate(437.634766 0)"/>
       <use xlink:href="#DejaVuSans-61" transform="translate(501.013672 0)"/>
       <use xlink:href="#DejaVuSans-73" transform="translate(562.292969 0)"/>
       <use xlink:href="#DejaVuSans-65" transform="translate(614.392578 0)"/>
      </g>
     </g>
    </g>
    <g id="ytick_6">
     <g id="line2d_22">
      <g>
       <use xlink:href="#ma96df56e18" x="109.42" y="109.849046" style="stroke: #000000; stroke-width: 0.8"/>
      </g>
     </g>
     <g id="text_15">
      <!-- TCP loopback bulk -->
      <g transform="translate(11.146563 113.648265) scale(0.1 -0.1)">
       <defs>
        <path id="DejaVuSans-54" d="M -19 4666 
L 3928 4666 
L 3928 4134 
L 2272 4134 
L 2272 0 
L 1638 0 
L 1638 4134 
L -19 4134 
L -19 4666 
z
" transform="scale(0.015625)"/>
        <path id="DejaVuSans-43" d="M 4122 4306 
L 4122 3641 
Q 3803 3938 3442 4084 
Q 3081 4231 2675 4231 
Q 1875 4231 1450 3742 
Q 1025 3253 1025 2328 
Q 1025 1406 1450 917 
Q 1875 428 2675 428 
Q 3081 428 3442 575 
Q 3803 722 4122 1019 
L 4122 359 
Q 3791 134 3420 21 
Q 3050 -91 2638 -91 
Q 1578 -91 968 557 
Q 359 1206 359 2328 
Q 359 3453 968 4101 
Q 1578 4750 2638 4750 
Q 3056 4750 3426 4639 
Q 3797 4528 4122 4306 
z
" transform="scale(0.015625)"/>
        <path id="DejaVuSans-62" d="M 3116 1747 
Q 3116 2381 2855 2742 
Q 2594 3103 2138 3103 
Q 1681 3103 1420 2742 
Q 1159 2381 1159 1747 
Q 1159 1113 1420 752 
Q 1681 391 2138 391 
Q 2594 391 2855 752 
Q 3116 1113 3116 1747 
z
M 1159 2969 
Q 1341 3281 1617 3432 
Q 1894 3584 2278 3584 
Q 2916 3584 3314 3078 
Q 3713 2572 3713 1747 
Q 3713 922 3314 415 
Q 2916 -91 2278 -91 
Q 1894 -91 1617 61 
Q 1341 213 1159 525 
L 1159 0 
L 581 0 
L 581 4863 
L 1159 4863 
L 1159 2969 
z
" transform="scale(0.015625)"/>
        <path id="DejaVuSans-6b" d="M 581 4863 
L 1159 4863 
L 1159 1991 
L 2875 3500 
L 3609 3500 
L 1753 1863 
L 3688 0 
L 2938 0 
L 1159 1709 
L 1159 0 
L 581 0 
L 581 4863 
z
" transform="scale(0.015625)"/>
        <path id="DejaVuSans-75" d="M 544 1381 
L 544 3500 
L 1119 3500 
L 1119 1403 
Q 1119 906 1312 657 
Q 1506 409 1894 409 
Q 2359 409 2629 706 
Q 2900 1003 2900 1516 
L 2900 3500 
L 3475 3500 
L 3475 0 
L 2900 0 
L 2900 538 
Q 2691 219 2414 64 
Q 2138 -91 1772 -91 
Q 1169 -91 856 284 
Q 544 659 544 1381 
z
M 1991 3584 
L 1991 3584 
z
" transform="scale(0.015625)"/>
       </defs>
       <use xlink:href="#DejaVuSans-54"/>
       <use xlink:href="#DejaVuSans-43" transform="translate(55.208984 0)"/>
       <use xlink:href="#DejaVuSans-50" transform="translate(125.033203 0)"/>
       <use xlink:href="#DejaVuSans-20" transform="translate(185.335938 0)"/>
       <use xlink:href="#DejaVuSans-6c" transform="translate(217.123047 0)"/>
       <use xlink:href="#DejaVuSans-6f" transform="translate(244.90625 0)"/>
       <use xlink:href="#DejaVuSans-6f" transform="translate(306.087891 0)"/>
       <use xlink:href="#DejaVuSans-70" transform="translate(367.269531 0)"/>
       <use xlink:href="#DejaVuSans-62" transform="translate(430.746094 0)"/>
       <use xlink:href="#DejaVuSans-61" transform="translate(494.222656 0)"/>
       <use xlink:href="#DejaVuSans-63" transform="translate(555.501953 0)"/>
       <use xlink:href="#DejaVuSans-6b" transform="translate(610.482422 0)"/>
       <use xlink:href="#DejaVuSans-20" transform="translate(668.392578 0)"/>
       <use xlink:href="#DejaVuSans-62" transform="translate(700.179688 0)"/>
       <use xlink:href="#DejaVuSans-75" transform="translate(763.65625 0)"/>
       <use xlink:href="#DejaVuSans-6c" transform="translate(827.035156 0)"/>
       <use xlink:href="#DejaVuSans-6b" transform="translate(854.818359 0)"/>
      </g>
     </g>
    </g>
    <g id="ytick_7">
     <g id="line2d_23">
      <g>
       <use xlink:href="#ma96df56e18" x="109.42" y="76.657843" style="stroke: #000000; stroke-width: 0.8"/>
      </g>
     </g>
     <g id="text_16">
      <!-- TCP loopback RTT -->
      <g transform="translate(14.137187 80.457061) scale(0.1 -0.1)">
       <defs>
        <path id="DejaVuSans-52" d="M 2841 2188 
Q 3044 2119 3236 1894 
Q 3428 1669 3622 1275 
L 4263 0 
L 3584 0 
L 2988 1197 
Q 2756 1666 2539 1819 
Q 2322 1972 1947 1972 
L 1259 1972 
L 1259 0 
L 628 0 
L 628 4666 
L 2053 4666 
Q 2853 4666 3247 4331 
Q 3641 3997 3641 3322 
Q 3641 2881 3436 2590 
Q 3231 2300 2841 2188 
z
M 1259 4147 
L 1259 2491 
L 2053 2491 
Q 2509 2491 2742 2702 
Q 2975 2913 2975 3322 
Q 2975 3731 2742 3939 
Q 2509 4147 2053 4147 
L 1259 4147 
z
" transform="scale(0.015625)"/>
       </defs>
       <use xlink:href="#DejaVuSans-54"/>
       <use xlink:href="#DejaVuSans-43" transform="translate(55.208984 0)"/>
       <use xlink:href="#DejaVuSans-50" transform="translate(125.033203 0)"/>
       <use xlink:href="#DejaVuSans-20" transform="translate(185.335938 0)"/>
       <use xlink:href="#DejaVuSans-6c" transform="translate(217.123047 0)"/>
       <use xlink:href="#DejaVuSans-6f" transform="translate(244.90625 0)"/>
       <use xlink:href="#DejaVuSans-6f" transform="translate(306.087891 0)"/>
       <use xlink:href="#DejaVuSans-70" transform="translate(367.269531 0)"/>
       <use xlink:href="#DejaVuSans-62" transform="translate(430.746094 0)"/>
       <use xlink:href="#DejaVuSans-61" transform="translate(494.222656 0)"/>
       <use xlink:href="#DejaVuSans-63" transform="translate(555.501953 0)"/>
       <use xlink:href="#DejaVuSans-6b" transform="translate(610.482422 0)"/>
       <use xlink:href="#DejaVuSans-20" transform="translate(668.392578 0)"/>
       <use xlink:href="#DejaVuSans-52" transform="translate(700.179688 0)"/>
       <use xlink:href="#DejaVuSans-54" transform="translate(762.412109 0)"/>
       <use xlink:href="#DejaVuSans-54" transform="translate(821.746094 0)"/>
      </g>
     </g>
    </g>
   </g>
   <g id="line2d_24">
    <path d="M 221.051672 275.805065 
L 290.313182 275.805065 
" clip-path="url(#p6b440b52c6)" style="fill: none; stroke: #147d92; stroke-width: 2; stroke-linecap: square"/>
   </g>
   <g id="line2d_25">
    <defs>
     <path id="med85fd2e80" d="M 0 3 
C 0.795609 3 1.55874 2.683901 2.12132 2.12132 
C 2.683901 1.55874 3 0.795609 3 0 
C 3 -0.795609 2.683901 -1.55874 2.12132 -2.12132 
C 1.55874 -2.683901 0.795609 -3 0 -3 
C -0.795609 -3 -1.55874 -2.683901 -2.12132 -2.12132 
C -2.683901 -1.55874 -3 -0.795609 -3 0 
C -3 0.795609 -2.683901 1.55874 -2.12132 2.12132 
C -1.55874 2.683901 -0.795609 3 0 3 
z
" style="stroke: #123f57"/>
    </defs>
    <g clip-path="url(#p6b440b52c6)">
     <use xlink:href="#med85fd2e80" x="265.733525" y="275.805065" style="fill: #123f57; stroke: #123f57"/>
    </g>
   </g>
   <g id="line2d_26">
    <path d="M 132.87695 242.613861 
L 363.188186 242.613861 
" clip-path="url(#p6b440b52c6)" style="fill: none; stroke: #147d92; stroke-width: 2; stroke-linecap: square"/>
   </g>
   <g id="line2d_27">
    <g clip-path="url(#p6b440b52c6)">
     <use xlink:href="#med85fd2e80" x="220.07369" y="242.613861" style="fill: #123f57; stroke: #123f57"/>
    </g>
   </g>
   <g id="line2d_28">
    <path d="M 283.501591 209.422657 
L 298.295198 209.422657 
" clip-path="url(#p6b440b52c6)" style="fill: none; stroke: #147d92; stroke-width: 2; stroke-linecap: square"/>
   </g>
   <g id="line2d_29">
    <g clip-path="url(#p6b440b52c6)">
     <use xlink:href="#med85fd2e80" x="290.999267" y="209.422657" style="fill: #123f57; stroke: #123f57"/>
    </g>
   </g>
   <g id="line2d_30">
    <path d="M 218.661626 176.231454 
L 344.705414 176.231454 
" clip-path="url(#p6b440b52c6)" style="fill: none; stroke: #147d92; stroke-width: 2; stroke-linecap: square"/>
   </g>
   <g id="line2d_31">
    <g clip-path="url(#p6b440b52c6)">
     <use xlink:href="#med85fd2e80" x="271.58337" y="176.231454" style="fill: #123f57; stroke: #123f57"/>
    </g>
   </g>
   <g id="line2d_32">
    <path d="M 261.276752 143.04025 
L 281.191713 143.04025 
" clip-path="url(#p6b440b52c6)" style="fill: none; stroke: #147d92; stroke-width: 2; stroke-linecap: square"/>
   </g>
   <g id="line2d_33">
    <g clip-path="url(#p6b440b52c6)">
     <use xlink:href="#med85fd2e80" x="265.637695" y="143.04025" style="fill: #123f57; stroke: #123f57"/>
    </g>
   </g>
   <g id="line2d_34">
    <path d="M 188.71661 109.849046 
L 329.428972 109.849046 
" clip-path="url(#p6b440b52c6)" style="fill: none; stroke: #147d92; stroke-width: 2; stroke-linecap: square"/>
   </g>
   <g id="line2d_35">
    <g clip-path="url(#p6b440b52c6)">
     <use xlink:href="#med85fd2e80" x="240.495348" y="109.849046" style="fill: #123f57; stroke: #123f57"/>
    </g>
   </g>
   <g id="line2d_36">
    <path d="M 498.10123 76.657843 
L 602.015944 76.657843 
" clip-path="url(#p6b440b52c6)" style="fill: none; stroke: #147d92; stroke-width: 2; stroke-linecap: square"/>
   </g>
   <g id="line2d_37">
    <g clip-path="url(#p6b440b52c6)">
     <use xlink:href="#med85fd2e80" x="538.486003" y="76.657843" style="fill: #123f57; stroke: #123f57"/>
    </g>
   </g>
   <g id="line2d_38">
    <path d="M 278.688549 292.400667 
L 278.688549 53.424 
" clip-path="url(#p6b440b52c6)" style="fill: none; stroke: #888888; stroke-width: 0.8; stroke-linecap: square"/>
   </g>
   <g id="patch_3">
    <path d="M 109.42 292.400667 
L 109.42 53.424 
" style="fill: none; stroke: #000000; stroke-width: 0.8; stroke-linejoin: miter; stroke-linecap: square"/>
   </g>
   <g id="patch_4">
    <path d="M 109.42 292.400667 
L 625.472893 292.400667 
" style="fill: none; stroke: #000000; stroke-width: 0.8; stroke-linejoin: miter; stroke-linecap: square"/>
   </g>
   <g id="text_17">
    <!-- -1.9% -->
    <g transform="translate(272.733525 269.805065) scale(0.08 -0.08)">
     <defs>
      <path id="DejaVuSans-2e" d="M 684 794 
L 1344 794 
L 1344 0 
L 684 0 
L 684 794 
z
" transform="scale(0.015625)"/>
      <path id="DejaVuSans-39" d="M 703 97 
L 703 672 
Q 941 559 1184 500 
Q 1428 441 1663 441 
Q 2288 441 2617 861 
Q 2947 1281 2994 2138 
Q 2813 1869 2534 1725 
Q 2256 1581 1919 1581 
Q 1219 1581 811 2004 
Q 403 2428 403 3163 
Q 403 3881 828 4315 
Q 1253 4750 1959 4750 
Q 2769 4750 3195 4129 
Q 3622 3509 3622 2328 
Q 3622 1225 3098 567 
Q 2575 -91 1691 -91 
Q 1453 -91 1209 -44 
Q 966 3 703 97 
z
M 1959 2075 
Q 2384 2075 2632 2365 
Q 2881 2656 2881 3163 
Q 2881 3666 2632 3958 
Q 2384 4250 1959 4250 
Q 1534 4250 1286 3958 
Q 1038 3666 1038 3163 
Q 1038 2656 1286 2365 
Q 1534 2075 1959 2075 
z
" transform="scale(0.015625)"/>
     </defs>
     <use xlink:href="#DejaVuSans-2d"/>
     <use xlink:href="#DejaVuSans-31" transform="translate(36.083984 0)"/>
     <use xlink:href="#DejaVuSans-2e" transform="translate(99.707031 0)"/>
     <use xlink:href="#DejaVuSans-39" transform="translate(131.494141 0)"/>
     <use xlink:href="#DejaVuSans-25" transform="translate(195.117188 0)"/>
    </g>
   </g>
   <g id="text_18">
    <!-- -8.6% -->
    <g transform="translate(227.07369 236.613861) scale(0.08 -0.08)">
     <defs>
      <path id="DejaVuSans-38" d="M 2034 2216 
Q 1584 2216 1326 1975 
Q 1069 1734 1069 1313 
Q 1069 891 1326 650 
Q 1584 409 2034 409 
Q 2484 409 2743 651 
Q 3003 894 3003 1313 
Q 3003 1734 2745 1975 
Q 2488 2216 2034 2216 
z
M 1403 2484 
Q 997 2584 770 2862 
Q 544 3141 544 3541 
Q 544 4100 942 4425 
Q 1341 4750 2034 4750 
Q 2731 4750 3128 4425 
Q 3525 4100 3525 3541 
Q 3525 3141 3298 2862 
Q 3072 2584 2669 2484 
Q 3125 2378 3379 2068 
Q 3634 1759 3634 1313 
Q 3634 634 3220 271 
Q 2806 -91 2034 -91 
Q 1263 -91 848 271 
Q 434 634 434 1313 
Q 434 1759 690 2068 
Q 947 2378 1403 2484 
z
M 1172 3481 
Q 1172 3119 1398 2916 
Q 1625 2713 2034 2713 
Q 2441 2713 2670 2916 
Q 2900 3119 2900 3481 
Q 2900 3844 2670 4047 
Q 2441 4250 2034 4250 
Q 1625 4250 1398 4047 
Q 1172 3844 1172 3481 
z
" transform="scale(0.015625)"/>
      <path id="DejaVuSans-36" d="M 2113 2584 
Q 1688 2584 1439 2293 
Q 1191 2003 1191 1497 
Q 1191 994 1439 701 
Q 1688 409 2113 409 
Q 2538 409 2786 701 
Q 3034 994 3034 1497 
Q 3034 2003 2786 2293 
Q 2538 2584 2113 2584 
z
M 3366 4563 
L 3366 3988 
Q 3128 4100 2886 4159 
Q 2644 4219 2406 4219 
Q 1781 4219 1451 3797 
Q 1122 3375 1075 2522 
Q 1259 2794 1537 2939 
Q 1816 3084 2150 3084 
Q 2853 3084 3261 2657 
Q 3669 2231 3669 1497 
Q 3669 778 3244 343 
Q 2819 -91 2113 -91 
Q 1303 -91 875 529 
Q 447 1150 447 2328 
Q 447 3434 972 4092 
Q 1497 4750 2381 4750 
Q 2619 4750 2861 4703 
Q 3103 4656 3366 4563 
z
" transform="scale(0.015625)"/>
     </defs>
     <use xlink:href="#DejaVuSans-2d"/>
     <use xlink:href="#DejaVuSans-38" transform="translate(36.083984 0)"/>
     <use xlink:href="#DejaVuSans-2e" transform="translate(99.707031 0)"/>
     <use xlink:href="#DejaVuSans-36" transform="translate(131.494141 0)"/>
     <use xlink:href="#DejaVuSans-25" transform="translate(195.117188 0)"/>
    </g>
   </g>
   <g id="text_19">
    <!-- +1.8% -->
    <g transform="translate(297.999267 203.422657) scale(0.08 -0.08)">
     <defs>
      <path id="DejaVuSans-2b" d="M 2944 4013 
L 2944 2272 
L 4684 2272 
L 4684 1741 
L 2944 1741 
L 2944 0 
L 2419 0 
L 2419 1741 
L 678 1741 
L 678 2272 
L 2419 2272 
L 2419 4013 
L 2944 4013 
z
" transform="scale(0.015625)"/>
     </defs>
     <use xlink:href="#DejaVuSans-2b"/>
     <use xlink:href="#DejaVuSans-31" transform="translate(83.789062 0)"/>
     <use xlink:href="#DejaVuSans-2e" transform="translate(147.412109 0)"/>
     <use xlink:href="#DejaVuSans-38" transform="translate(179.199219 0)"/>
     <use xlink:href="#DejaVuSans-25" transform="translate(242.822266 0)"/>
    </g>
   </g>
   <g id="text_20">
    <!-- -1.0% -->
    <g transform="translate(278.58337 170.231454) scale(0.08 -0.08)">
     <use xlink:href="#DejaVuSans-2d"/>
     <use xlink:href="#DejaVuSans-31" transform="translate(36.083984 0)"/>
     <use xlink:href="#DejaVuSans-2e" transform="translate(99.707031 0)"/>
     <use xlink:href="#DejaVuSans-30" transform="translate(131.494141 0)"/>
     <use xlink:href="#DejaVuSans-25" transform="translate(195.117188 0)"/>
    </g>
   </g>
   <g id="text_21">
    <!-- -1.9% -->
    <g transform="translate(272.637695 137.04025) scale(0.08 -0.08)">
     <use xlink:href="#DejaVuSans-2d"/>
     <use xlink:href="#DejaVuSans-31" transform="translate(36.083984 0)"/>
     <use xlink:href="#DejaVuSans-2e" transform="translate(99.707031 0)"/>
     <use xlink:href="#DejaVuSans-39" transform="translate(131.494141 0)"/>
     <use xlink:href="#DejaVuSans-25" transform="translate(195.117188 0)"/>
    </g>
   </g>
   <g id="text_22">
    <!-- -5.6% -->
    <g transform="translate(247.495348 103.849046) scale(0.08 -0.08)">
     <use xlink:href="#DejaVuSans-2d"/>
     <use xlink:href="#DejaVuSans-35" transform="translate(36.083984 0)"/>
     <use xlink:href="#DejaVuSans-2e" transform="translate(99.707031 0)"/>
     <use xlink:href="#DejaVuSans-36" transform="translate(131.494141 0)"/>
     <use xlink:href="#DejaVuSans-25" transform="translate(195.117188 0)"/>
    </g>
   </g>
   <g id="text_23">
    <!-- +38.0% -->
    <g transform="translate(545.486003 70.657843) scale(0.08 -0.08)">
     <use xlink:href="#DejaVuSans-2b"/>
     <use xlink:href="#DejaVuSans-33" transform="translate(83.789062 0)"/>
     <use xlink:href="#DejaVuSans-38" transform="translate(147.412109 0)"/>
     <use xlink:href="#DejaVuSans-2e" transform="translate(211.035156 0)"/>
     <use xlink:href="#DejaVuSans-30" transform="translate(242.822266 0)"/>
     <use xlink:href="#DejaVuSans-25" transform="translate(306.445312 0)"/>
    </g>
   </g>
  </g>
  <g id="axes_2">
   <g id="patch_5">
    <path d="M 109.42 382.156 
L 625.472893 382.156 
L 625.472893 334.360667 
L 109.42 334.360667 
z
" style="fill: #ffffff"/>
   </g>
   <g id="matplotlib.axis_3">
    <g id="xtick_9">
     <g id="line2d_39">
      <path d="M 132.87695 382.156 
L 132.87695 334.360667 
" clip-path="url(#p99765c9e53)" style="fill: none; stroke: #b0b0b0; stroke-opacity: 0.2; stroke-width: 0.8; stroke-linecap: square"/>
     </g>
     <g id="line2d_40">
      <g>
       <use xlink:href="#m244a46e21f" x="132.87695" y="382.156" style="stroke: #000000; stroke-width: 0.8"/>
      </g>
     </g>
     <g id="text_24">
      <!-- 0 -->
      <g transform="translate(129.6957 396.754437) scale(0.1 -0.1)">
       <use xlink:href="#DejaVuSans-30"/>
      </g>
     </g>
    </g>
    <g id="xtick_10">
     <g id="line2d_41">
      <path d="M 231.207496 382.156 
L 231.207496 334.360667 
" clip-path="url(#p99765c9e53)" style="fill: none; stroke: #b0b0b0; stroke-opacity: 0.2; stroke-width: 0.8; stroke-linecap: square"/>
     </g>
     <g id="line2d_42">
      <g>
       <use xlink:href="#m244a46e21f" x="231.207496" y="382.156" style="stroke: #000000; stroke-width: 0.8"/>
      </g>
     </g>
     <g id="text_25">
      <!-- 200 -->
      <g transform="translate(221.663746 396.754437) scale(0.1 -0.1)">
       <use xlink:href="#DejaVuSans-32"/>
       <use xlink:href="#DejaVuSans-30" transform="translate(63.623047 0)"/>
       <use xlink:href="#DejaVuSans-30" transform="translate(127.246094 0)"/>
      </g>
     </g>
    </g>
    <g id="xtick_11">
     <g id="line2d_43">
      <path d="M 329.538042 382.156 
L 329.538042 334.360667 
" clip-path="url(#p99765c9e53)" style="fill: none; stroke: #b0b0b0; stroke-opacity: 0.2; stroke-width: 0.8; stroke-linecap: square"/>
     </g>
     <g id="line2d_44">
      <g>
       <use xlink:href="#m244a46e21f" x="329.538042" y="382.156" style="stroke: #000000; stroke-width: 0.8"/>
      </g>
     </g>
     <g id="text_26">
      <!-- 400 -->
      <g transform="translate(319.994292 396.754437) scale(0.1 -0.1)">
       <use xlink:href="#DejaVuSans-34"/>
       <use xlink:href="#DejaVuSans-30" transform="translate(63.623047 0)"/>
       <use xlink:href="#DejaVuSans-30" transform="translate(127.246094 0)"/>
      </g>
     </g>
    </g>
    <g id="xtick_12">
     <g id="line2d_45">
      <path d="M 427.868588 382.156 
L 427.868588 334.360667 
" clip-path="url(#p99765c9e53)" style="fill: none; stroke: #b0b0b0; stroke-opacity: 0.2; stroke-width: 0.8; stroke-linecap: square"/>
     </g>
     <g id="line2d_46">
      <g>
       <use xlink:href="#m244a46e21f" x="427.868588" y="382.156" style="stroke: #000000; stroke-width: 0.8"/>
      </g>
     </g>
     <g id="text_27">
      <!-- 600 -->
      <g transform="translate(418.324838 396.754437) scale(0.1 -0.1)">
       <use xlink:href="#DejaVuSans-36"/>
       <use xlink:href="#DejaVuSans-30" transform="translate(63.623047 0)"/>
       <use xlink:href="#DejaVuSans-30" transform="translate(127.246094 0)"/>
      </g>
     </g>
    </g>
    <g id="xtick_13">
     <g id="line2d_47">
      <path d="M 526.199134 382.156 
L 526.199134 334.360667 
" clip-path="url(#p99765c9e53)" style="fill: none; stroke: #b0b0b0; stroke-opacity: 0.2; stroke-width: 0.8; stroke-linecap: square"/>
     </g>
     <g id="line2d_48">
      <g>
       <use xlink:href="#m244a46e21f" x="526.199134" y="382.156" style="stroke: #000000; stroke-width: 0.8"/>
      </g>
     </g>
     <g id="text_28">
      <!-- 800 -->
      <g transform="translate(516.655384 396.754437) scale(0.1 -0.1)">
       <use xlink:href="#DejaVuSans-38"/>
       <use xlink:href="#DejaVuSans-30" transform="translate(63.623047 0)"/>
       <use xlink:href="#DejaVuSans-30" transform="translate(127.246094 0)"/>
      </g>
     </g>
    </g>
    <g id="xtick_14">
     <g id="line2d_49">
      <path d="M 624.52968 382.156 
L 624.52968 334.360667 
" clip-path="url(#p99765c9e53)" style="fill: none; stroke: #b0b0b0; stroke-opacity: 0.2; stroke-width: 0.8; stroke-linecap: square"/>
     </g>
     <g id="line2d_50">
      <g>
       <use xlink:href="#m244a46e21f" x="624.52968" y="382.156" style="stroke: #000000; stroke-width: 0.8"/>
      </g>
     </g>
     <g id="text_29">
      <!-- 1000 -->
      <g transform="translate(611.80468 396.754437) scale(0.1 -0.1)">
       <use xlink:href="#DejaVuSans-31"/>
       <use xlink:href="#DejaVuSans-30" transform="translate(63.623047 0)"/>
       <use xlink:href="#DejaVuSans-30" transform="translate(127.246094 0)"/>
       <use xlink:href="#DejaVuSans-30" transform="translate(190.869141 0)"/>
      </g>
     </g>
    </g>
    <g id="text_30">
     <!-- Elapsed-time change (%) — positive means slower -->
     <g transform="translate(240.444884 410.432562) scale(0.1 -0.1)">
      <use xlink:href="#DejaVuSans-45"/>
      <use xlink:href="#DejaVuSans-6c" transform="translate(63.183594 0)"/>
      <use xlink:href="#DejaVuSans-61" transform="translate(90.966797 0)"/>
      <use xlink:href="#DejaVuSans-70" transform="translate(152.246094 0)"/>
      <use xlink:href="#DejaVuSans-73" transform="translate(215.722656 0)"/>
      <use xlink:href="#DejaVuSans-65" transform="translate(267.822266 0)"/>
      <use xlink:href="#DejaVuSans-64" transform="translate(329.345703 0)"/>
      <use xlink:href="#DejaVuSans-2d" transform="translate(392.822266 0)"/>
      <use xlink:href="#DejaVuSans-74" transform="translate(428.90625 0)"/>
      <use xlink:href="#DejaVuSans-69" transform="translate(468.115234 0)"/>
      <use xlink:href="#DejaVuSans-6d" transform="translate(495.898438 0)"/>
      <use xlink:href="#DejaVuSans-65" transform="translate(593.310547 0)"/>
      <use xlink:href="#DejaVuSans-20" transform="translate(654.833984 0)"/>
      <use xlink:href="#DejaVuSans-63" transform="translate(686.621094 0)"/>
      <use xlink:href="#DejaVuSans-68" transform="translate(741.601562 0)"/>
      <use xlink:href="#DejaVuSans-61" transform="translate(804.980469 0)"/>
      <use xlink:href="#DejaVuSans-6e" transform="translate(866.259766 0)"/>
      <use xlink:href="#DejaVuSans-67" transform="translate(929.638672 0)"/>
      <use xlink:href="#DejaVuSans-65" transform="translate(993.115234 0)"/>
      <use xlink:href="#DejaVuSans-20" transform="translate(1054.638672 0)"/>
      <use xlink:href="#DejaVuSans-28" transform="translate(1086.425781 0)"/>
      <use xlink:href="#DejaVuSans-25" transform="translate(1125.439453 0)"/>
      <use xlink:href="#DejaVuSans-29" transform="translate(1220.458984 0)"/>
      <use xlink:href="#DejaVuSans-20" transform="translate(1259.472656 0)"/>
      <use xlink:href="#DejaVuSans-2014" transform="translate(1291.259766 0)"/>
      <use xlink:href="#DejaVuSans-20" transform="translate(1391.259766 0)"/>
      <use xlink:href="#DejaVuSans-70" transform="translate(1423.046875 0)"/>
      <use xlink:href="#DejaVuSans-6f" transform="translate(1486.523438 0)"/>
      <use xlink:href="#DejaVuSans-73" transform="translate(1547.705078 0)"/>
      <use xlink:href="#DejaVuSans-69" transform="translate(1599.804688 0)"/>
      <use xlink:href="#DejaVuSans-74" transform="translate(1627.587891 0)"/>
      <use xlink:href="#DejaVuSans-69" transform="translate(1666.796875 0)"/>
      <use xlink:href="#DejaVuSans-76" transform="translate(1694.580078 0)"/>
      <use xlink:href="#DejaVuSans-65" transform="translate(1753.759766 0)"/>
      <use xlink:href="#DejaVuSans-20" transform="translate(1815.283203 0)"/>
      <use xlink:href="#DejaVuSans-6d" transform="translate(1847.070312 0)"/>
      <use xlink:href="#DejaVuSans-65" transform="translate(1944.482422 0)"/>
      <use xlink:href="#DejaVuSans-61" transform="translate(2006.005859 0)"/>
      <use xlink:href="#DejaVuSans-6e" transform="translate(2067.285156 0)"/>
      <use xlink:href="#DejaVuSans-73" transform="translate(2130.664062 0)"/>
      <use xlink:href="#DejaVuSans-20" transform="translate(2182.763672 0)"/>
      <use xlink:href="#DejaVuSans-73" transform="translate(2214.550781 0)"/>
      <use xlink:href="#DejaVuSans-6c" transform="translate(2266.650391 0)"/>
      <use xlink:href="#DejaVuSans-6f" transform="translate(2294.433594 0)"/>
      <use xlink:href="#DejaVuSans-77" transform="translate(2355.615234 0)"/>
      <use xlink:href="#DejaVuSans-65" transform="translate(2437.402344 0)"/>
      <use xlink:href="#DejaVuSans-72" transform="translate(2498.925781 0)"/>
     </g>
    </g>
   </g>
   <g id="matplotlib.axis_4">
    <g id="ytick_8">
     <g id="line2d_51">
      <g>
       <use xlink:href="#ma96df56e18" x="109.42" y="362.241278" style="stroke: #000000; stroke-width: 0.8"/>
      </g>
     </g>
     <g id="text_31">
      <!-- CPUID leaf 0 -->
      <g transform="translate(40.140313 366.040497) scale(0.1 -0.1)">
       <defs>
        <path id="DejaVuSans-55" d="M 556 4666 
L 1191 4666 
L 1191 1831 
Q 1191 1081 1462 751 
Q 1734 422 2344 422 
Q 2950 422 3222 751 
Q 3494 1081 3494 1831 
L 3494 4666 
L 4128 4666 
L 4128 1753 
Q 4128 841 3676 375 
Q 3225 -91 2344 -91 
Q 1459 -91 1007 375 
Q 556 841 556 1753 
L 556 4666 
z
" transform="scale(0.015625)"/>
        <path id="DejaVuSans-66" d="M 2375 4863 
L 2375 4384 
L 1825 4384 
Q 1516 4384 1395 4259 
Q 1275 4134 1275 3809 
L 1275 3500 
L 2222 3500 
L 2222 3053 
L 1275 3053 
L 1275 0 
L 697 0 
L 697 3053 
L 147 3053 
L 147 3500 
L 697 3500 
L 697 3744 
Q 697 4328 969 4595 
Q 1241 4863 1831 4863 
L 2375 4863 
z
" transform="scale(0.015625)"/>
       </defs>
       <use xlink:href="#DejaVuSans-43"/>
       <use xlink:href="#DejaVuSans-50" transform="translate(69.824219 0)"/>
       <use xlink:href="#DejaVuSans-55" transform="translate(130.126953 0)"/>
       <use xlink:href="#DejaVuSans-49" transform="translate(203.320312 0)"/>
       <use xlink:href="#DejaVuSans-44" transform="translate(232.8125 0)"/>
       <use xlink:href="#DejaVuSans-20" transform="translate(309.814453 0)"/>
       <use xlink:href="#DejaVuSans-6c" transform="translate(341.601562 0)"/>
       <use xlink:href="#DejaVuSans-65" transform="translate(369.384766 0)"/>
       <use xlink:href="#DejaVuSans-61" transform="translate(430.908203 0)"/>
       <use xlink:href="#DejaVuSans-66" transform="translate(492.1875 0)"/>
       <use xlink:href="#DejaVuSans-20" transform="translate(527.392578 0)"/>
       <use xlink:href="#DejaVuSans-30" transform="translate(559.179688 0)"/>
      </g>
     </g>
    </g>
   </g>
   <g id="line2d_52">
    <path d="M 576.841458 362.241278 
L 602.015944 362.241278 
" clip-path="url(#p99765c9e53)" style="fill: none; stroke: #147d92; stroke-width: 2; stroke-linecap: square"/>
   </g>
   <g id="line2d_53">
    <g clip-path="url(#p99765c9e53)">
     <use xlink:href="#med85fd2e80" x="589.806542" y="362.241278" style="fill: #123f57; stroke: #123f57"/>
    </g>
   </g>
   <g id="line2d_54">
    <path d="M 132.87695 382.156 
L 132.87695 334.360667 
" clip-path="url(#p99765c9e53)" style="fill: none; stroke: #888888; stroke-width: 0.8; stroke-linecap: square"/>
   </g>
   <g id="patch_6">
    <path d="M 109.42 382.156 
L 109.42 334.360667 
" style="fill: none; stroke: #000000; stroke-width: 0.8; stroke-linejoin: miter; stroke-linecap: square"/>
   </g>
   <g id="patch_7">
    <path d="M 109.42 382.156 
L 625.472893 382.156 
" style="fill: none; stroke: #000000; stroke-width: 0.8; stroke-linejoin: miter; stroke-linecap: square"/>
   </g>
   <g id="text_32">
    <!-- +929.4% -->
    <g transform="translate(596.806542 356.241278) scale(0.08 -0.08)">
     <use xlink:href="#DejaVuSans-2b"/>
     <use xlink:href="#DejaVuSans-39" transform="translate(83.789062 0)"/>
     <use xlink:href="#DejaVuSans-32" transform="translate(147.412109 0)"/>
     <use xlink:href="#DejaVuSans-39" transform="translate(211.035156 0)"/>
     <use xlink:href="#DejaVuSans-2e" transform="translate(274.658203 0)"/>
     <use xlink:href="#DejaVuSans-34" transform="translate(306.445312 0)"/>
     <use xlink:href="#DejaVuSans-25" transform="translate(370.068359 0)"/>
    </g>
   </g>
  </g>
  <g id="text_33">
   <!-- KSword residency: matched Windows-only pilot -->
   <g transform="translate(158.255312 19.709812) scale(0.14 -0.14)">
    <defs>
     <path id="DejaVuSans-4b" d="M 628 4666 
L 1259 4666 
L 1259 2694 
L 3353 4666 
L 4166 4666 
L 1850 2491 
L 4331 0 
L 3500 0 
L 1259 2247 
L 1259 0 
L 628 0 
L 628 4666 
z
" transform="scale(0.015625)"/>
     <path id="DejaVuSans-53" d="M 3425 4513 
L 3425 3897 
Q 3066 4069 2747 4153 
Q 2428 4238 2131 4238 
Q 1616 4238 1336 4038 
Q 1056 3838 1056 3469 
Q 1056 3159 1242 3001 
Q 1428 2844 1947 2747 
L 2328 2669 
Q 3034 2534 3370 2195 
Q 3706 1856 3706 1288 
Q 3706 609 3251 259 
Q 2797 -91 1919 -91 
Q 1588 -91 1214 -16 
Q 841 59 441 206 
L 441 856 
Q 825 641 1194 531 
Q 1563 422 1919 422 
Q 2459 422 2753 634 
Q 3047 847 3047 1241 
Q 3047 1584 2836 1778 
Q 2625 1972 2144 2069 
L 1759 2144 
Q 1053 2284 737 2584 
Q 422 2884 422 3419 
Q 422 4038 858 4394 
Q 1294 4750 2059 4750 
Q 2388 4750 2728 4690 
Q 3069 4631 3425 4513 
z
" transform="scale(0.015625)"/>
     <path id="DejaVuSans-3a" d="M 750 794 
L 1409 794 
L 1409 0 
L 750 0 
L 750 794 
z
M 750 3309 
L 1409 3309 
L 1409 2516 
L 750 2516 
L 750 3309 
z
" transform="scale(0.015625)"/>
     <path id="DejaVuSans-57" d="M 213 4666 
L 850 4666 
L 1831 722 
L 2809 4666 
L 3519 4666 
L 4500 722 
L 5478 4666 
L 6119 4666 
L 4947 0 
L 4153 0 
L 3169 4050 
L 2175 0 
L 1381 0 
L 213 4666 
z
" transform="scale(0.015625)"/>
    </defs>
    <use xlink:href="#DejaVuSans-4b"/>
    <use xlink:href="#DejaVuSans-53" transform="translate(65.576172 0)"/>
    <use xlink:href="#DejaVuSans-77" transform="translate(129.052734 0)"/>
    <use xlink:href="#DejaVuSans-6f" transform="translate(210.839844 0)"/>
    <use xlink:href="#DejaVuSans-72" transform="translate(272.021484 0)"/>
    <use xlink:href="#DejaVuSans-64" transform="translate(311.384766 0)"/>
    <use xlink:href="#DejaVuSans-20" transform="translate(374.861328 0)"/>
    <use xlink:href="#DejaVuSans-72" transform="translate(406.648438 0)"/>
    <use xlink:href="#DejaVuSans-65" transform="translate(445.511719 0)"/>
    <use xlink:href="#DejaVuSans-73" transform="translate(507.035156 0)"/>
    <use xlink:href="#DejaVuSans-69" transform="translate(559.134766 0)"/>
    <use xlink:href="#DejaVuSans-64" transform="translate(586.917969 0)"/>
    <use xlink:href="#DejaVuSans-65" transform="translate(650.394531 0)"/>
    <use xlink:href="#DejaVuSans-6e" transform="translate(711.917969 0)"/>
    <use xlink:href="#DejaVuSans-63" transform="translate(775.296875 0)"/>
    <use xlink:href="#DejaVuSans-79" transform="translate(830.277344 0)"/>
    <use xlink:href="#DejaVuSans-3a" transform="translate(882.207031 0)"/>
    <use xlink:href="#DejaVuSans-20" transform="translate(915.898438 0)"/>
    <use xlink:href="#DejaVuSans-6d" transform="translate(947.685547 0)"/>
    <use xlink:href="#DejaVuSans-61" transform="translate(1045.097656 0)"/>
    <use xlink:href="#DejaVuSans-74" transform="translate(1106.376953 0)"/>
    <use xlink:href="#DejaVuSans-63" transform="translate(1145.585938 0)"/>
    <use xlink:href="#DejaVuSans-68" transform="translate(1200.566406 0)"/>
    <use xlink:href="#DejaVuSans-65" transform="translate(1263.945312 0)"/>
    <use xlink:href="#DejaVuSans-64" transform="translate(1325.46875 0)"/>
    <use xlink:href="#DejaVuSans-20" transform="translate(1388.945312 0)"/>
    <use xlink:href="#DejaVuSans-57" transform="translate(1420.732422 0)"/>
    <use xlink:href="#DejaVuSans-69" transform="translate(1517.359375 0)"/>
    <use xlink:href="#DejaVuSans-6e" transform="translate(1545.142578 0)"/>
    <use xlink:href="#DejaVuSans-64" transform="translate(1608.521484 0)"/>
    <use xlink:href="#DejaVuSans-6f" transform="translate(1671.998047 0)"/>
    <use xlink:href="#DejaVuSans-77" transform="translate(1733.179688 0)"/>
    <use xlink:href="#DejaVuSans-73" transform="translate(1814.966797 0)"/>
    <use xlink:href="#DejaVuSans-2d" transform="translate(1867.066406 0)"/>
    <use xlink:href="#DejaVuSans-6f" transform="translate(1905.025391 0)"/>
    <use xlink:href="#DejaVuSans-6e" transform="translate(1966.207031 0)"/>
    <use xlink:href="#DejaVuSans-6c" transform="translate(2029.585938 0)"/>
    <use xlink:href="#DejaVuSans-79" transform="translate(2057.369141 0)"/>
    <use xlink:href="#DejaVuSans-20" transform="translate(2116.548828 0)"/>
    <use xlink:href="#DejaVuSans-70" transform="translate(2148.335938 0)"/>
    <use xlink:href="#DejaVuSans-69" transform="translate(2211.8125 0)"/>
    <use xlink:href="#DejaVuSans-6c" transform="translate(2239.595703 0)"/>
    <use xlink:href="#DejaVuSans-6f" transform="translate(2267.378906 0)"/>
    <use xlink:href="#DejaVuSans-74" transform="translate(2328.560547 0)"/>
   </g>
  </g>
  <g id="text_34">
   <!-- One CPU model and one Windows boot; on n=7, off n=14. Bars: percentile bootstrap 95% CI. -->
   <g transform="translate(12.96 439.19855) scale(0.08 -0.08)">
    <defs>
     <path id="DejaVuSans-4f" d="M 2522 4238 
Q 1834 4238 1429 3725 
Q 1025 3213 1025 2328 
Q 1025 1447 1429 934 
Q 1834 422 2522 422 
Q 3209 422 3611 934 
Q 4013 1447 4013 2328 
Q 4013 3213 3611 3725 
Q 3209 4238 2522 4238 
z
M 2522 4750 
Q 3503 4750 4090 4092 
Q 4678 3434 4678 2328 
Q 4678 1225 4090 567 
Q 3503 -91 2522 -91 
Q 1538 -91 948 565 
Q 359 1222 359 2328 
Q 359 3434 948 4092 
Q 1538 4750 2522 4750 
z
" transform="scale(0.015625)"/>
     <path id="DejaVuSans-3b" d="M 750 3309 
L 1409 3309 
L 1409 2516 
L 750 2516 
L 750 3309 
z
M 750 794 
L 1409 794 
L 1409 256 
L 897 -744 
L 494 -744 
L 750 256 
L 750 794 
z
" transform="scale(0.015625)"/>
     <path id="DejaVuSans-3d" d="M 678 2906 
L 4684 2906 
L 4684 2381 
L 678 2381 
L 678 2906 
z
M 678 1631 
L 4684 1631 
L 4684 1100 
L 678 1100 
L 678 1631 
z
" transform="scale(0.015625)"/>
     <path id="DejaVuSans-37" d="M 525 4666 
L 3525 4666 
L 3525 4397 
L 1831 0 
L 1172 0 
L 2766 4134 
L 525 4134 
L 525 4666 
z
" transform="scale(0.015625)"/>
     <path id="DejaVuSans-2c" d="M 750 794 
L 1409 794 
L 1409 256 
L 897 -744 
L 494 -744 
L 750 256 
L 750 794 
z
" transform="scale(0.015625)"/>
     <path id="DejaVuSans-42" d="M 1259 2228 
L 1259 519 
L 2272 519 
Q 2781 519 3026 730 
Q 3272 941 3272 1375 
Q 3272 1813 3026 2020 
Q 2781 2228 2272 2228 
L 1259 2228 
z
M 1259 4147 
L 1259 2741 
L 2194 2741 
Q 2656 2741 2882 2914 
Q 3109 3088 3109 3444 
Q 3109 3797 2882 3972 
Q 2656 4147 2194 4147 
L 1259 4147 
z
M 628 4666 
L 2241 4666 
Q 2963 4666 3353 4366 
Q 3744 4066 3744 3513 
Q 3744 3084 3544 2831 
Q 3344 2578 2956 2516 
Q 3422 2416 3680 2098 
Q 3938 1781 3938 1306 
Q 3938 681 3513 340 
Q 3088 0 2303 0 
L 628 0 
L 628 4666 
z
" transform="scale(0.015625)"/>
    </defs>
    <use xlink:href="#DejaVuSans-4f"/>
    <use xlink:href="#DejaVuSans-6e" transform="translate(78.710938 0)"/>
    <use xlink:href="#DejaVuSans-65" transform="translate(142.089844 0)"/>
    <use xlink:href="#DejaVuSans-20" transform="translate(203.613281 0)"/>
    <use xlink:href="#DejaVuSans-43" transform="translate(235.400391 0)"/>
    <use xlink:href="#DejaVuSans-50" transform="translate(305.224609 0)"/>
    <use xlink:href="#DejaVuSans-55" transform="translate(365.527344 0)"/>
    <use xlink:href="#DejaVuSans-20" transform="translate(438.720703 0)"/>
    <use xlink:href="#DejaVuSans-6d" transform="translate(470.507812 0)"/>
    <use xlink:href="#DejaVuSans-6f" transform="translate(567.919922 0)"/>
    <use xlink:href="#DejaVuSans-64" transform="translate(629.101562 0)"/>
    <use xlink:href="#DejaVuSans-65" transform="translate(692.578125 0)"/>
    <use xlink:href="#DejaVuSans-6c" transform="translate(754.101562 0)"/>
    <use xlink:href="#DejaVuSans-20" transform="translate(781.884766 0)"/>
    <use xlink:href="#DejaVuSans-61" transform="translate(813.671875 0)"/>
    <use xlink:href="#DejaVuSans-6e" transform="translate(874.951172 0)"/>
    <use xlink:href="#DejaVuSans-64" transform="translate(938.330078 0)"/>
    <use xlink:href="#DejaVuSans-20" transform="translate(1001.806641 0)"/>
    <use xlink:href="#DejaVuSans-6f" transform="translate(1033.59375 0)"/>
    <use xlink:href="#DejaVuSans-6e" transform="translate(1094.775391 0)"/>
    <use xlink:href="#DejaVuSans-65" transform="translate(1158.154297 0)"/>
    <use xlink:href="#DejaVuSans-20" transform="translate(1219.677734 0)"/>
    <use xlink:href="#DejaVuSans-57" transform="translate(1251.464844 0)"/>
    <use xlink:href="#DejaVuSans-69" transform="translate(1348.091797 0)"/>
    <use xlink:href="#DejaVuSans-6e" transform="translate(1375.875 0)"/>
    <use xlink:href="#DejaVuSans-64" transform="translate(1439.253906 0)"/>
    <use xlink:href="#DejaVuSans-6f" transform="translate(1502.730469 0)"/>
    <use xlink:href="#DejaVuSans-77" transform="translate(1563.912109 0)"/>
    <use xlink:href="#DejaVuSans-73" transform="translate(1645.699219 0)"/>
    <use xlink:href="#DejaVuSans-20" transform="translate(1697.798828 0)"/>
    <use xlink:href="#DejaVuSans-62" transform="translate(1729.585938 0)"/>
    <use xlink:href="#DejaVuSans-6f" transform="translate(1793.0625 0)"/>
    <use xlink:href="#DejaVuSans-6f" transform="translate(1854.244141 0)"/>
    <use xlink:href="#DejaVuSans-74" transform="translate(1915.425781 0)"/>
    <use xlink:href="#DejaVuSans-3b" transform="translate(1954.634766 0)"/>
    <use xlink:href="#DejaVuSans-20" transform="translate(1988.326172 0)"/>
    <use xlink:href="#DejaVuSans-6f" transform="translate(2020.113281 0)"/>
    <use xlink:href="#DejaVuSans-6e" transform="translate(2081.294922 0)"/>
    <use xlink:href="#DejaVuSans-20" transform="translate(2144.673828 0)"/>
    <use xlink:href="#DejaVuSans-6e" transform="translate(2176.460938 0)"/>
    <use xlink:href="#DejaVuSans-3d" transform="translate(2239.839844 0)"/>
    <use xlink:href="#DejaVuSans-37" transform="translate(2323.628906 0)"/>
    <use xlink:href="#DejaVuSans-2c" transform="translate(2387.251953 0)"/>
    <use xlink:href="#DejaVuSans-20" transform="translate(2419.039062 0)"/>
    <use xlink:href="#DejaVuSans-6f" transform="translate(2450.826172 0)"/>
    <use xlink:href="#DejaVuSans-66" transform="translate(2512.007812 0)"/>
    <use xlink:href="#DejaVuSans-66" transform="translate(2547.212891 0)"/>
    <use xlink:href="#DejaVuSans-20" transform="translate(2582.417969 0)"/>
    <use xlink:href="#DejaVuSans-6e" transform="translate(2614.205078 0)"/>
    <use xlink:href="#DejaVuSans-3d" transform="translate(2677.583984 0)"/>
    <use xlink:href="#DejaVuSans-31" transform="translate(2761.373047 0)"/>
    <use xlink:href="#DejaVuSans-34" transform="translate(2824.996094 0)"/>
    <use xlink:href="#DejaVuSans-2e" transform="translate(2888.619141 0)"/>
    <use xlink:href="#DejaVuSans-20" transform="translate(2920.40625 0)"/>
    <use xlink:href="#DejaVuSans-42" transform="translate(2952.193359 0)"/>
    <use xlink:href="#DejaVuSans-61" transform="translate(3020.796875 0)"/>
    <use xlink:href="#DejaVuSans-72" transform="translate(3082.076172 0)"/>
    <use xlink:href="#DejaVuSans-73" transform="translate(3123.189453 0)"/>
    <use xlink:href="#DejaVuSans-3a" transform="translate(3175.289062 0)"/>
    <use xlink:href="#DejaVuSans-20" transform="translate(3208.980469 0)"/>
    <use xlink:href="#DejaVuSans-70" transform="translate(3240.767578 0)"/>
    <use xlink:href="#DejaVuSans-65" transform="translate(3304.244141 0)"/>
    <use xlink:href="#DejaVuSans-72" transform="translate(3365.767578 0)"/>
    <use xlink:href="#DejaVuSans-63" transform="translate(3404.630859 0)"/>
    <use xlink:href="#DejaVuSans-65" transform="translate(3459.611328 0)"/>
    <use xlink:href="#DejaVuSans-6e" transform="translate(3521.134766 0)"/>
    <use xlink:href="#DejaVuSans-74" transform="translate(3584.513672 0)"/>
    <use xlink:href="#DejaVuSans-69" transform="translate(3623.722656 0)"/>
    <use xlink:href="#DejaVuSans-6c" transform="translate(3651.505859 0)"/>
    <use xlink:href="#DejaVuSans-65" transform="translate(3679.289062 0)"/>
    <use xlink:href="#DejaVuSans-20" transform="translate(3740.8125 0)"/>
    <use xlink:href="#DejaVuSans-62" transform="translate(3772.599609 0)"/>
    <use xlink:href="#DejaVuSans-6f" transform="translate(3836.076172 0)"/>
    <use xlink:href="#DejaVuSans-6f" transform="translate(3897.257812 0)"/>
    <use xlink:href="#DejaVuSans-74" transform="translate(3958.439453 0)"/>
    <use xlink:href="#DejaVuSans-73" transform="translate(3997.648438 0)"/>
    <use xlink:href="#DejaVuSans-74" transform="translate(4049.748047 0)"/>
    <use xlink:href="#DejaVuSans-72" transform="translate(4088.957031 0)"/>
    <use xlink:href="#DejaVuSans-61" transform="translate(4130.070312 0)"/>
    <use xlink:href="#DejaVuSans-70" transform="translate(4191.349609 0)"/>
    <use xlink:href="#DejaVuSans-20" transform="translate(4254.826172 0)"/>
    <use xlink:href="#DejaVuSans-39" transform="translate(4286.613281 0)"/>
    <use xlink:href="#DejaVuSans-35" transform="translate(4350.236328 0)"/>
    <use xlink:href="#DejaVuSans-25" transform="translate(4413.859375 0)"/>
    <use xlink:href="#DejaVuSans-20" transform="translate(4508.878906 0)"/>
    <use xlink:href="#DejaVuSans-43" transform="translate(4540.666016 0)"/>
    <use xlink:href="#DejaVuSans-49" transform="translate(4610.490234 0)"/>
    <use xlink:href="#DejaVuSans-2e" transform="translate(4639.982422 0)"/>
   </g>
   <!-- Sequential off/on/off blocks; background drift remains. CPUID uses a separate axis. -->
   <g transform="translate(12.96 448.1568) scale(0.08 -0.08)">
    <defs>
     <path id="DejaVuSans-71" d="M 947 1747 
Q 947 1113 1208 752 
Q 1469 391 1925 391 
Q 2381 391 2643 752 
Q 2906 1113 2906 1747 
Q 2906 2381 2643 2742 
Q 2381 3103 1925 3103 
Q 1469 3103 1208 2742 
Q 947 2381 947 1747 
z
M 2906 525 
Q 2725 213 2448 61 
Q 2172 -91 1784 -91 
Q 1150 -91 751 415 
Q 353 922 353 1747 
Q 353 2572 751 3078 
Q 1150 3584 1784 3584 
Q 2172 3584 2448 3432 
Q 2725 3281 2906 2969 
L 2906 3500 
L 3481 3500 
L 3481 -1331 
L 2906 -1331 
L 2906 525 
z
" transform="scale(0.015625)"/>
     <path id="DejaVuSans-2f" d="M 1625 4666 
L 2156 4666 
L 531 -594 
L 0 -594 
L 1625 4666 
z
" transform="scale(0.015625)"/>
     <path id="DejaVuSans-78" d="M 3513 3500 
L 2247 1797 
L 3578 0 
L 2900 0 
L 1881 1375 
L 863 0 
L 184 0 
L 1544 1831 
L 300 3500 
L 978 3500 
L 1906 2253 
L 2834 3500 
L 3513 3500 
z
" transform="scale(0.015625)"/>
    </defs>
    <use xlink:href="#DejaVuSans-53"/>
    <use xlink:href="#DejaVuSans-65" transform="translate(63.476562 0)"/>
    <use xlink:href="#DejaVuSans-71" transform="translate(125 0)"/>
    <use xlink:href="#DejaVuSans-75" transform="translate(188.476562 0)"/>
    <use xlink:href="#DejaVuSans-65" transform="translate(251.855469 0)"/>
    <use xlink:href="#DejaVuSans-6e" transform="translate(313.378906 0)"/>
    <use xlink:href="#DejaVuSans-74" transform="translate(376.757812 0)"/>
    <use xlink:href="#DejaVuSans-69" transform="translate(415.966797 0)"/>
    <use xlink:href="#DejaVuSans-61" transform="translate(443.75 0)"/>
    <use xlink:href="#DejaVuSans-6c" transform="translate(505.029297 0)"/>
    <use xlink:href="#DejaVuSans-20" transform="translate(532.8125 0)"/>
    <use xlink:href="#DejaVuSans-6f" transform="translate(564.599609 0)"/>
    <use xlink:href="#DejaVuSans-66" transform="translate(625.78125 0)"/>
    <use xlink:href="#DejaVuSans-66" transform="translate(660.986328 0)"/>
    <use xlink:href="#DejaVuSans-2f" transform="translate(696.191406 0)"/>
    <use xlink:href="#DejaVuSans-6f" transform="translate(729.882812 0)"/>
    <use xlink:href="#DejaVuSans-6e" transform="translate(791.064453 0)"/>
    <use xlink:href="#DejaVuSans-2f" transform="translate(854.443359 0)"/>
    <use xlink:href="#DejaVuSans-6f" transform="translate(888.134766 0)"/>
    <use xlink:href="#DejaVuSans-66" transform="translate(949.316406 0)"/>
    <use xlink:href="#DejaVuSans-66" transform="translate(984.521484 0)"/>
    <use xlink:href="#DejaVuSans-20" transform="translate(1019.726562 0)"/>
    <use xlink:href="#DejaVuSans-62" transform="translate(1051.513672 0)"/>
    <use xlink:href="#DejaVuSans-6c" transform="translate(1114.990234 0)"/>
    <use xlink:href="#DejaVuSans-6f" transform="translate(1142.773438 0)"/>
    <use xlink:href="#DejaVuSans-63" transform="translate(1203.955078 0)"/>
    <use xlink:href="#DejaVuSans-6b" transform="translate(1258.935547 0)"/>
    <use xlink:href="#DejaVuSans-73" transform="translate(1316.845703 0)"/>
    <use xlink:href="#DejaVuSans-3b" transform="translate(1368.945312 0)"/>
    <use xlink:href="#DejaVuSans-20" transform="translate(1402.636719 0)"/>
    <use xlink:href="#DejaVuSans-62" transform="translate(1434.423828 0)"/>
    <use xlink:href="#DejaVuSans-61" transform="translate(1497.900391 0)"/>
    <use xlink:href="#DejaVuSans-63" transform="translate(1559.179688 0)"/>
    <use xlink:href="#DejaVuSans-6b" transform="translate(1614.160156 0)"/>
    <use xlink:href="#DejaVuSans-67" transform="translate(1672.070312 0)"/>
    <use xlink:href="#DejaVuSans-72" transform="translate(1735.546875 0)"/>
    <use xlink:href="#DejaVuSans-6f" transform="translate(1774.410156 0)"/>
    <use xlink:href="#DejaVuSans-75" transform="translate(1835.591797 0)"/>
    <use xlink:href="#DejaVuSans-6e" transform="translate(1898.970703 0)"/>
    <use xlink:href="#DejaVuSans-64" transform="translate(1962.349609 0)"/>
    <use xlink:href="#DejaVuSans-20" transform="translate(2025.826172 0)"/>
    <use xlink:href="#DejaVuSans-64" transform="translate(2057.613281 0)"/>
    <use xlink:href="#DejaVuSans-72" transform="translate(2121.089844 0)"/>
    <use xlink:href="#DejaVuSans-69" transform="translate(2162.203125 0)"/>
    <use xlink:href="#DejaVuSans-66" transform="translate(2189.986328 0)"/>
    <use xlink:href="#DejaVuSans-74" transform="translate(2223.441406 0)"/>
    <use xlink:href="#DejaVuSans-20" transform="translate(2262.650391 0)"/>
    <use xlink:href="#DejaVuSans-72" transform="translate(2294.4375 0)"/>
    <use xlink:href="#DejaVuSans-65" transform="translate(2333.300781 0)"/>
    <use xlink:href="#DejaVuSans-6d" transform="translate(2394.824219 0)"/>
    <use xlink:href="#DejaVuSans-61" transform="translate(2492.236328 0)"/>
    <use xlink:href="#DejaVuSans-69" transform="translate(2553.515625 0)"/>
    <use xlink:href="#DejaVuSans-6e" transform="translate(2581.298828 0)"/>
    <use xlink:href="#DejaVuSans-73" transform="translate(2644.677734 0)"/>
    <use xlink:href="#DejaVuSans-2e" transform="translate(2696.777344 0)"/>
    <use xlink:href="#DejaVuSans-20" transform="translate(2728.564453 0)"/>
    <use xlink:href="#DejaVuSans-43" transform="translate(2760.351562 0)"/>
    <use xlink:href="#DejaVuSans-50" transform="translate(2830.175781 0)"/>
    <use xlink:href="#DejaVuSans-55" transform="translate(2890.478516 0)"/>
    <use xlink:href="#DejaVuSans-49" transform="translate(2963.671875 0)"/>
    <use xlink:href="#DejaVuSans-44" transform="translate(2993.164062 0)"/>
    <use xlink:href="#DejaVuSans-20" transform="translate(3070.166016 0)"/>
    <use xlink:href="#DejaVuSans-75" transform="translate(3101.953125 0)"/>
    <use xlink:href="#DejaVuSans-73" transform="translate(3165.332031 0)"/>
    <use xlink:href="#DejaVuSans-65" transform="translate(3217.431641 0)"/>
    <use xlink:href="#DejaVuSans-73" transform="translate(3278.955078 0)"/>
    <use xlink:href="#DejaVuSans-20" transform="translate(3331.054688 0)"/>
    <use xlink:href="#DejaVuSans-61" transform="translate(3362.841797 0)"/>
    <use xlink:href="#DejaVuSans-20" transform="translate(3424.121094 0)"/>
    <use xlink:href="#DejaVuSans-73" transform="translate(3455.908203 0)"/>
    <use xlink:href="#DejaVuSans-65" transform="translate(3508.007812 0)"/>
    <use xlink:href="#DejaVuSans-70" transform="translate(3569.53125 0)"/>
    <use xlink:href="#DejaVuSans-61" transform="translate(3633.007812 0)"/>
    <use xlink:href="#DejaVuSans-72" transform="translate(3694.287109 0)"/>
    <use xlink:href="#DejaVuSans-61" transform="translate(3735.400391 0)"/>
    <use xlink:href="#DejaVuSans-74" transform="translate(3796.679688 0)"/>
    <use xlink:href="#DejaVuSans-65" transform="translate(3835.888672 0)"/>
    <use xlink:href="#DejaVuSans-20" transform="translate(3897.412109 0)"/>
    <use xlink:href="#DejaVuSans-61" transform="translate(3929.199219 0)"/>
    <use xlink:href="#DejaVuSans-78" transform="translate(3990.478516 0)"/>
    <use xlink:href="#DejaVuSans-69" transform="translate(4049.658203 0)"/>
    <use xlink:href="#DejaVuSans-73" transform="translate(4077.441406 0)"/>
    <use xlink:href="#DejaVuSans-2e" transform="translate(4129.541016 0)"/>
   </g>
  </g>
 </g>
 <defs>
  <clipPath id="p6b440b52c6">
   <rect x="109.42" y="53.424" width="516.052893" height="238.976667"/>
  </clipPath>
  <clipPath id="p99765c9e53">
   <rect x="109.42" y="334.360667" width="516.052893" height="47.795333"/>
  </clipPath>
 </defs>
</svg>
